  0
SECTION
  2
HEADER
  9
$ACADVER
  1
AC1018
  9
$ACADMAINTVER
 70
     0
  9
$DWGCODEPAGE
  3
ANSI_932
  9
$INSBASE
 10
0.0
 20
0.0
 30
0.0
  9
$EXTMIN
 10
1.000000000000000E+20
 20
1.000000000000000E+20
 30
1.000000000000000E+20
  9
$EXTMAX
 10
-1.000000000000000E+20
 20
-1.000000000000000E+20
 30
-1.000000000000000E+20
  9
$LIMMIN
 10
0.0
 20
0.0
  9
$LIMMAX
 10
12.0
 20
9.0
  9
$ORTHOMODE
 70
     0
  9
$REGENMODE
 70
     1
  9
$FILLMODE
 70
     1
  9
$QTEXTMODE
 70
     0
  9
$MIRRTEXT
 70
     1
  9
$LTSCALE
 40
1.0
  9
$ATTMODE
 70
     1
  9
$TEXTSIZE
 40
0.2
  9
$TRACEWID
 40
0.05
  9
$TEXTSTYLE
  7
Standard
  9
$CLAYER
  8
0
  9
$CELTYPE
  6
ByLayer
  9
$CECOLOR
 62
   256
  9
$CELTSCALE
 40
1.0
  9
$DISPSILH
 70
     0
  9
$DIMSCALE
 40
1.0
  9
$DIMASZ
 40
0.18
  9
$DIMEXO
 40
0.0625
  9
$DIMDLI
 40
0.38
  9
$DIMRND
 40
0.0
  9
$DIMDLE
 40
0.0
  9
$DIMEXE
 40
0.18
  9
$DIMTP
 40
0.0
  9
$DIMTM
 40
0.0
  9
$DIMTXT
 40
0.18
  9
$DIMCEN
 40
0.09
  9
$DIMTSZ
 40
0.0
  9
$DIMTOL
 70
     0
  9
$DIMLIM
 70
     0
  9
$DIMTIH
 70
     1
  9
$DIMTOH
 70
     1
  9
$DIMSE1
 70
     0
  9
$DIMSE2
 70
     0
  9
$DIMTAD
 70
     0
  9
$DIMZIN
 70
     0
  9
$DIMBLK
  1

  9
$DIMASO
 70
     1
  9
$DIMSHO
 70
     1
  9
$DIMPOST
  1

  9
$DIMAPOST
  1

  9
$DIMALT
 70
     0
  9
$DIMALTD
 70
     2
  9
$DIMALTF
 40
25.4
  9
$DIMLFAC
 40
1.0
  9
$DIMTOFL
 70
     0
  9
$DIMTVP
 40
0.0
  9
$DIMTIX
 70
     0
  9
$DIMSOXD
 70
     0
  9
$DIMSAH
 70
     0
  9
$DIMBLK1
  1

  9
$DIMBLK2
  1

  9
$DIMSTYLE
  2
Standard
  9
$DIMCLRD
 70
     0
  9
$DIMCLRE
 70
     0
  9
$DIMCLRT
 70
     0
  9
$DIMTFAC
 40
1.0
  9
$DIMGAP
 40
0.09
  9
$DIMJUST
 70
     0
  9
$DIMSD1
 70
     0
  9
$DIMSD2
 70
     0
  9
$DIMTOLJ
 70
     1
  9
$DIMTZIN
 70
     0
  9
$DIMALTZ
 70
     0
  9
$DIMALTTZ
 70
     0
  9
$DIMUPT
 70
     0
  9
$DIMDEC
 70
     4
  9
$DIMTDEC
 70
     4
  9
$DIMALTU
 70
     2
  9
$DIMALTTD
 70
     2
  9
$DIMTXSTY
  7
Standard
  9
$DIMAUNIT
 70
     0
  9
$DIMADEC
 70
     0
  9
$DIMALTRND
 40
0.0
  9
$DIMAZIN
 70
     0
  9
$DIMDSEP
 70
    46
  9
$DIMATFIT
 70
     3
  9
$DIMFRAC
 70
     0
  9
$DIMLDRBLK
  1

  9
$DIMLUNIT
 70
     2
  9
$DIMLWD
 70
    -2
  9
$DIMLWE
 70
    -2
  9
$DIMTMOVE
 70
     0
  9
$LUNITS
 70
     2
  9
$LUPREC
 70
     4
  9
$SKETCHINC
 40
0.1
  9
$FILLETRAD
 40
0.5
  9
$AUNITS
 70
     0
  9
$AUPREC
 70
     0
  9
$MENU
  1
.
  9
$ELEVATION
 40
0.0
  9
$PELEVATION
 40
0.0
  9
$THICKNESS
 40
0.0
  9
$LIMCHECK
 70
     0
  9
$CHAMFERA
 40
0.5
  9
$CHAMFERB
 40
0.5
  9
$CHAMFERC
 40
1.0
  9
$CHAMFERD
 40
0.0
  9
$SKPOLY
 70
     0
  9
$TDCREATE
 40
2457548.468449074
  9
$TDUCREATE
 40
2457548.801782407
  9
$TDUPDATE
 40
2457548.468449085
  9
$TDUUPDATE
 40
2457548.801782419
  9
$TDINDWG
 40
0.0000000116
  9
$TDUSRTIMER
 40
0.0000000116
  9
$USRTIMER
 70
     1
  9
$ANGBASE
 50
0.0
  9
$ANGDIR
 70
     0
  9
$PDMODE
 70
     0
  9
$PDSIZE
 40
0.0
  9
$PLINEWID
 40
0.0
  9
$SPLFRAME
 70
     0
  9
$SPLINETYPE
 70
     6
  9
$SPLINESEGS
 70
     8
  9
$HANDSEED
  5
73
  9
$SURFTAB1
 70
     6
  9
$SURFTAB2
 70
     6
  9
$SURFTYPE
 70
     6
  9
$SURFU
 70
     6
  9
$SURFV
 70
     6
  9
$UCSBASE
  2

  9
$UCSNAME
  2

  9
$UCSORG
 10
0.0
 20
0.0
 30
0.0
  9
$UCSXDIR
 10
1.0
 20
0.0
 30
0.0
  9
$UCSYDIR
 10
0.0
 20
1.0
 30
0.0
  9
$UCSORTHOREF
  2

  9
$UCSORTHOVIEW
 70
     0
  9
$UCSORGTOP
 10
0.0
 20
0.0
 30
0.0
  9
$UCSORGBOTTOM
 10
0.0
 20
0.0
 30
0.0
  9
$UCSORGLEFT
 10
0.0
 20
0.0
 30
0.0
  9
$UCSORGRIGHT
 10
0.0
 20
0.0
 30
0.0
  9
$UCSORGFRONT
 10
0.0
 20
0.0
 30
0.0
  9
$UCSORGBACK
 10
0.0
 20
0.0
 30
0.0
  9
$PUCSBASE
  2

  9
$PUCSNAME
  2

  9
$PUCSORG
 10
0.0
 20
0.0
 30
0.0
  9
$PUCSXDIR
 10
1.0
 20
0.0
 30
0.0
  9
$PUCSYDIR
 10
0.0
 20
1.0
 30
0.0
  9
$PUCSORTHOREF
  2

  9
$PUCSORTHOVIEW
 70
     0
  9
$PUCSORGTOP
 10
0.0
 20
0.0
 30
0.0
  9
$PUCSORGBOTTOM
 10
0.0
 20
0.0
 30
0.0
  9
$PUCSORGLEFT
 10
0.0
 20
0.0
 30
0.0
  9
$PUCSORGRIGHT
 10
0.0
 20
0.0
 30
0.0
  9
$PUCSORGFRONT
 10
0.0
 20
0.0
 30
0.0
  9
$PUCSORGBACK
 10
0.0
 20
0.0
 30
0.0
  9
$USERI1
 70
     0
  9
$USERI2
 70
     0
  9
$USERI3
 70
     0
  9
$USERI4
 70
     0
  9
$USERI5
 70
     0
  9
$USERR1
 40
0.0
  9
$USERR2
 40
0.0
  9
$USERR3
 40
0.0
  9
$USERR4
 40
0.0
  9
$USERR5
 40
0.0
  9
$WORLDVIEW
 70
     1
  9
$SHADEDGE
 70
     3
  9
$SHADEDIF
 70
    70
  9
$TILEMODE
 70
     1
  9
$MAXACTVP
 70
    64
  9
$PINSBASE
 10
0.0
 20
0.0
 30
0.0
  9
$PLIMCHECK
 70
     0
  9
$PEXTMIN
 10
1.000000000000000E+20
 20
1.000000000000000E+20
 30
1.000000000000000E+20
  9
$PEXTMAX
 10
-1.000000000000000E+20
 20
-1.000000000000000E+20
 30
-1.000000000000000E+20
  9
$PLIMMIN
 10
0.0
 20
0.0
  9
$PLIMMAX
 10
12.0
 20
9.0
  9
$UNITMODE
 70
     0
  9
$VISRETAIN
 70
     1
  9
$PLINEGEN
 70
     0
  9
$PSLTSCALE
 70
     1
  9
$TREEDEPTH
 70
  3020
  9
$CMLSTYLE
  2
Standard
  9
$CMLJUST
 70
     0
  9
$CMLSCALE
 40
1.0
  9
$PROXYGRAPHICS
 70
     1
  9
$MEASUREMENT
 70
     0
  9
$CELWEIGHT
370
    -1
  9
$ENDCAPS
280
     0
  9
$JOINSTYLE
280
     0
  9
$LWDISPLAY
290
     1
  9
$INSUNITS
 70
     1
  9
$HYPERLINKBASE
  1

  9
$STYLESHEET
  1

  9
$XEDIT
290
     1
  9
$CEPSNTYPE
380
     0
  9
$PSTYLEMODE
290
     1
  9
$FINGERPRINTGUID
  2
{410BA44A-DD99-477A-CD01-9C93515882F3}
  9
$VERSIONGUID
  2
{FAEB1C32-E019-11D5-929B-00C0DF256EC4}
  9
$EXTNAMES
290
     1
  9
$PSVPSCALE
 40
0.0
  9
$OLESTARTUP
290
     0
  9
$SORTENTS
280
   127
  9
$INDEXCTL
280
     0
  9
$HIDETEXT
280
     1
  9
$XCLIPFRAME
290
     0
  9
$HALOGAP
280
     0
  9
$OBSCOLOR
 70
   257
  9
$OBSLTYPE
280
     0
  9
$INTERSECTIONDISPLAY
280
     0
  9
$INTERSECTIONCOLOR
 70
   257
  9
$DIMASSOC
280
     2
  9
$PROJECTNAME
  1

  0
ENDSEC
  0
SECTION
  2
CLASSES
  0
CLASS
  1
ACDBDICTIONARYWDFLT
  2
AcDbDictionaryWithDefault
  3
ObjectDBX Classes
 90
        0
 91
        3
280
     0
281
     0
  0
CLASS
  1
VISUALSTYLE
  2
AcDbVisualStyle
  3
ObjectDBX Classes
 90
     4095
 91
        3
280
     0
281
     0
  0
ENDSEC
  0
SECTION
  2
TABLES
  0
TABLE
  2
VPORT
  5
8
330
0
100
AcDbSymbolTable
 70
     1
  0
VPORT
  5
29
330
8
100
AcDbSymbolTableRecord
100
AcDbViewportTableRecord
  2
*Active
 70
     0
 10
0.0
 20
0.0
 11
1.0
 21
1.0
 12
0.0
 22
0.0
 13
0.0
 23
0.0
 14
0.5
 24
0.5
 15
0.5
 25
0.5
 16
0.0
 26
0.0
 36
1.0
 17
299.98095703125
 27
344.01708984375
 37
0.0
 40
1836.1201171875
 41
0.9804030131045476
 42
50.0
 43
0.0
 44
0.0
 50
0.0
 51
0.0
 71
     0
 72
   100
 73
     1
 74
     3
 75
     0
 76
     0
 77
     0
 78
     0
281
     0
 65
     1
110
0.0
120
0.0
130
0.0
111
1.0
121
0.0
131
0.0
112
0.0
122
1.0
132
0.0
 79
     0
146
0.0
  0
ENDTAB
  0
TABLE
  2
LTYPE
  5
5
330
0
100
AcDbSymbolTable
 70
     1
  0
LTYPE
  5
14
330
5
100
AcDbSymbolTableRecord
100
AcDbLinetypeTableRecord
  2
ByBlock
 70
     0
  3

 72
    65
 73
     0
 40
0.0
  0
LTYPE
  5
15
330
5
100
AcDbSymbolTableRecord
100
AcDbLinetypeTableRecord
  2
ByLayer
 70
     0
  3

 72
    65
 73
     0
 40
0.0
  0
LTYPE
  5
16
330
5
100
AcDbSymbolTableRecord
100
AcDbLinetypeTableRecord
  2
Continuous
 70
     0
  3
Solid line
 72
    65
 73
     0
 40
0.0
  0
ENDTAB
  0
TABLE
  2
LAYER
  5
2
330
0
100
AcDbSymbolTable
 70
     2
  0
LAYER
  5
10
330
2
100
AcDbSymbolTableRecord
100
AcDbLayerTableRecord
  2
0
 70
     0
 62
     7
  6
Continuous
370
    -3
390
F
  0
LAYER
  5
3B
330
2
100
AcDbSymbolTableRecord
100
AcDbLayerTableRecord
  2
Layer 1
 70
     0
 62
     7
  6
Continuous
370
    -3
390
F
  0
ENDTAB
  0
TABLE
  2
STYLE
  5
3
330
0
100
AcDbSymbolTable
 70
     1
  0
STYLE
  5
11
330
3
100
AcDbSymbolTableRecord
100
AcDbTextStyleTableRecord
  2
Standard
 70
     0
 40
0.0
 41
1.0
 50
0.0
 71
     0
 42
0.2
  3
txt
  4

  0
ENDTAB
  0
TABLE
  2
VIEW
  5
6
330
0
100
AcDbSymbolTable
 70
     0
  0
ENDTAB
  0
TABLE
  2
UCS
  5
7
330
0
100
AcDbSymbolTable
 70
     0
  0
ENDTAB
  0
TABLE
  2
APPID
  5
9
330
0
100
AcDbSymbolTable
 70
     1
  0
APPID
  5
12
330
9
100
AcDbSymbolTableRecord
100
AcDbRegAppTableRecord
  2
ACAD
 70
     0
  0
ENDTAB
  0
TABLE
  2
DIMSTYLE
  5
A
330
0
100
AcDbSymbolTable
 70
     1
100
AcDbDimStyleTable
  0
DIMSTYLE
105
27
330
A
100
AcDbSymbolTableRecord
100
AcDbDimStyleTableRecord
  2
Standard
 70
     0
340
11
  0
ENDTAB
  0
TABLE
  2
BLOCK_RECORD
  5
1
330
0
100
AcDbSymbolTable
 70
     1
  0
BLOCK_RECORD
  5
1F
330
1
100
AcDbSymbolTableRecord
100
AcDbBlockTableRecord
  2
*Model_Space
340
22
  0
BLOCK_RECORD
  5
1B
330
1
100
AcDbSymbolTableRecord
100
AcDbBlockTableRecord
  2
*Paper_Space
340
1E
  0
BLOCK_RECORD
  5
23
330
1
100
AcDbSymbolTableRecord
100
AcDbBlockTableRecord
  2
*Paper_Space0
340
26
  0
ENDTAB
  0
ENDSEC
  0
SECTION
  2
BLOCKS
  0
BLOCK
  5
20
330
1F
100
AcDbEntity
  8
0
100
AcDbBlockBegin
  2
*Model_Space
 70
     0
 71
     0
 10
0.0
 20
0.0
 30
0.0
  3
*Model_Space
  1

  0
ENDBLK
  5
21
330
1F
100
AcDbEntity
  8
0
100
AcDbBlockEnd
  0
BLOCK
  5
1C
330
1B
100
AcDbEntity
 67
     1
  8
0
100
AcDbBlockBegin
  2
*Paper_Space
 70
     0
 71
     0
 10
0.0
 20
0.0
 30
0.0
  3
*Paper_Space
  1

  0
ENDBLK
  5
1D
330
1B
100
AcDbEntity
 67
     1
  8
0
100
AcDbBlockEnd
  0
BLOCK
  5
24
330
23
100
AcDbEntity
  8
0
100
AcDbBlockBegin
  2
*Paper_Space0
 70
     0
 71
     0
 10
0.0
 20
0.0
 30
0.0
  3
*Paper_Space0
  1

  0
ENDBLK
  5
25
330
23
100
AcDbEntity
  8
0
100
AcDbBlockEnd
  0
ENDSEC
  0
SECTION
  2
ENTITIES
  0
SPLINE
  5
3C
330
1F
100
AcDbEntity
  8
Layer 1
370
     0
100
AcDbSpline
210
0.0
220
0.0
230
1.0
 70
    11
 71
     3
 72
    68
 73
    64
 74
     0
 42
0.0000000001
 43
0.0000000001
 40
0.0
 40
0.0
 40
0.0
 40
0.0
 40
1.0
 40
1.0
 40
1.0
 40
2.0
 40
2.0
 40
2.0
 40
3.0
 40
3.0
 40
3.0
 40
4.0
 40
4.0
 40
4.0
 40
5.0
 40
5.0
 40
5.0
 40
6.0
 40
6.0
 40
6.0
 40
7.0
 40
7.0
 40
7.0
 40
8.0
 40
8.0
 40
8.0
 40
9.0
 40
9.0
 40
9.0
 40
10.0
 40
10.0
 40
10.0
 40
11.0
 40
11.0
 40
11.0
 40
12.0
 40
12.0
 40
12.0
 40
13.0
 40
13.0
 40
13.0
 40
14.0
 40
14.0
 40
14.0
 40
15.0
 40
15.0
 40
15.0
 40
16.0
 40
16.0
 40
16.0
 40
17.0
 40
17.0
 40
17.0
 40
18.0
 40
18.0
 40
18.0
 40
19.0
 40
19.0
 40
19.0
 40
20.0
 40
20.0
 40
20.0
 40
21.0
 40
21.0
 40
21.0
 40
21.0
 10
-53.654296875
 20
855.62890625
 30
0.0
 10
-53.654296875
 20
855.62890625
 30
0.0
 10
-53.6318359375
 20
855.64697265625
 30
0.0
 10
-53.6318359375
 20
855.64697265625
 30
0.0
 10
-53.6318359375
 20
855.64697265625
 30
0.0
 10
-53.52587890625
 20
855.68359375
 30
0.0
 10
-53.52587890625
 20
855.68359375
 30
0.0
 10
-53.52587890625
 20
855.68359375
 30
0.0
 10
-53.37744140625
 20
855.69287109375
 30
0.0
 10
-53.37744140625
 20
855.69287109375
 30
0.0
 10
-53.37744140625
 20
855.69287109375
 30
0.0
 10
-53.23046875
 20
855.62890625
 30
0.0
 10
-53.23046875
 20
855.62890625
 30
0.0
 10
-53.23046875
 20
855.62890625
 30
0.0
 10
-53.19287109375
 20
855.560546875
 30
0.0
 10
-53.19287109375
 20
855.560546875
 30
0.0
 10
-53.19287109375
 20
855.560546875
 30
0.0
 10
-53.15966796875
 20
855.3759765625
 30
0.0
 10
-53.15966796875
 20
855.3759765625
 30
0.0
 10
-53.15966796875
 20
855.3759765625
 30
0.0
 10
-53.12451171875
 20
855.31103515625
 30
0.0
 10
-53.12451171875
 20
855.31103515625
 30
0.0
 10
-53.12451171875
 20
855.31103515625
 30
0.0
 10
-53.0693359375
 20
855.2763671875
 30
0.0
 10
-53.0693359375
 20
855.2763671875
 30
0.0
 10
-53.0693359375
 20
855.2763671875
 30
0.0
 10
-52.96337890625
 20
855.2392578125
 30
0.0
 10
-52.96337890625
 20
855.2392578125
 30
0.0
 10
-52.96337890625
 20
855.2392578125
 30
0.0
 10
-51.70849609375
 20
854.19140625
 30
0.0
 10
-51.70849609375
 20
854.19140625
 30
0.0
 10
-51.70849609375
 20
854.19140625
 30
0.0
 10
-51.5859375
 20
854.0126953125
 30
0.0
 10
-51.5859375
 20
854.0126953125
 30
0.0
 10
-51.5859375
 20
854.0126953125
 30
0.0
 10
-51.642578125
 20
853.82861328125
 30
0.0
 10
-51.642578125
 20
853.82861328125
 30
0.0
 10
-51.642578125
 20
853.82861328125
 30
0.0
 10
-52.59521484375
 20
852.77001953125
 30
0.0
 10
-52.59521484375
 20
852.77001953125
 30
0.0
 10
-52.59521484375
 20
852.77001953125
 30
0.0
 10
-54.3955078125
 20
854.3583984375
 30
0.0
 10
-54.3955078125
 20
854.3583984375
 30
0.0
 10
-54.3955078125
 20
854.3583984375
 30
0.0
 10
-54.6650390625
 20
854.46240234375
 30
0.0
 10
-54.6650390625
 20
854.46240234375
 30
0.0
 10
-54.6650390625
 20
854.46240234375
 30
0.0
 10
-54.712890625
 20
854.4638671875
 30
0.0
 10
-54.712890625
 20
854.4638671875
 30
0.0
 10
-54.712890625
 20
854.4638671875
 30
0.0
 10
-54.6689453125
 20
854.6357421875
 30
0.0
 10
-54.6689453125
 20
854.6357421875
 30
0.0
 10
-54.6689453125
 20
854.6357421875
 30
0.0
 10
-53.81591796875
 20
855.55517578125
 30
0.0
 10
-53.81591796875
 20
855.55517578125
 30
0.0
 10
-53.81591796875
 20
855.55517578125
 30
0.0
 10
-53.654296875
 20
855.62890625
 30
0.0
 10
-53.654296875
 20
855.62890625
 30
0.0
 10
-53.654296875
 20
855.62890625
 30
0.0
 10
-53.654296875
 20
855.62890625
 30
0.0
 10
-53.654296875
 20
855.62890625
 30
0.0
 10
-53.654296875
 20
855.62890625
 30
0.0
 10
-53.654296875
 20
855.62890625
 30
0.0
 10
-53.654296875
 20
855.62890625
 30
0.0
  0
HATCH
  5
3D
330
1F
100
AcDbEntity
  8
Layer 1
 62
     7
420
 16777215
100
AcDbHatch
 10
0.0
 20
0.0
 30
0.0
210
0.0
220
0.0
230
1.0
  2
SOLID
 70
     1
 71
     0
 91
        1
 92
        1
 93
        1
 72
     4
 94
        3
 73
     0
 74
     1
 95
       68
 96
       64
 40
0.0
 40
0.0
 40
0.0
 40
0.0
 40
1.0
 40
1.0
 40
1.0
 40
2.0
 40
2.0
 40
2.0
 40
3.0
 40
3.0
 40
3.0
 40
4.0
 40
4.0
 40
4.0
 40
5.0
 40
5.0
 40
5.0
 40
6.0
 40
6.0
 40
6.0
 40
7.0
 40
7.0
 40
7.0
 40
8.0
 40
8.0
 40
8.0
 40
9.0
 40
9.0
 40
9.0
 40
10.0
 40
10.0
 40
10.0
 40
11.0
 40
11.0
 40
11.0
 40
12.0
 40
12.0
 40
12.0
 40
13.0
 40
13.0
 40
13.0
 40
14.0
 40
14.0
 40
14.0
 40
15.0
 40
15.0
 40
15.0
 40
16.0
 40
16.0
 40
16.0
 40
17.0
 40
17.0
 40
17.0
 40
18.0
 40
18.0
 40
18.0
 40
19.0
 40
19.0
 40
19.0
 40
20.0
 40
20.0
 40
20.0
 40
21.0
 40
21.0
 40
21.0
 40
21.0
 10
-53.654296875
 20
855.62890625
 10
-53.654296875
 20
855.62890625
 10
-53.6318359375
 20
855.64697265625
 10
-53.6318359375
 20
855.64697265625
 10
-53.6318359375
 20
855.64697265625
 10
-53.52587890625
 20
855.68359375
 10
-53.52587890625
 20
855.68359375
 10
-53.52587890625
 20
855.68359375
 10
-53.37744140625
 20
855.69287109375
 10
-53.37744140625
 20
855.69287109375
 10
-53.37744140625
 20
855.69287109375
 10
-53.23046875
 20
855.62890625
 10
-53.23046875
 20
855.62890625
 10
-53.23046875
 20
855.62890625
 10
-53.19287109375
 20
855.560546875
 10
-53.19287109375
 20
855.560546875
 10
-53.19287109375
 20
855.560546875
 10
-53.15966796875
 20
855.3759765625
 10
-53.15966796875
 20
855.3759765625
 10
-53.15966796875
 20
855.3759765625
 10
-53.12451171875
 20
855.31103515625
 10
-53.12451171875
 20
855.31103515625
 10
-53.12451171875
 20
855.31103515625
 10
-53.0693359375
 20
855.2763671875
 10
-53.0693359375
 20
855.2763671875
 10
-53.0693359375
 20
855.2763671875
 10
-52.96337890625
 20
855.2392578125
 10
-52.96337890625
 20
855.2392578125
 10
-52.96337890625
 20
855.2392578125
 10
-51.70849609375
 20
854.19140625
 10
-51.70849609375
 20
854.19140625
 10
-51.70849609375
 20
854.19140625
 10
-51.5859375
 20
854.0126953125
 10
-51.5859375
 20
854.0126953125
 10
-51.5859375
 20
854.0126953125
 10
-51.642578125
 20
853.82861328125
 10
-51.642578125
 20
853.82861328125
 10
-51.642578125
 20
853.82861328125
 10
-52.59521484375
 20
852.77001953125
 10
-52.59521484375
 20
852.77001953125
 10
-52.59521484375
 20
852.77001953125
 10
-54.3955078125
 20
854.3583984375
 10
-54.3955078125
 20
854.3583984375
 10
-54.3955078125
 20
854.3583984375
 10
-54.6650390625
 20
854.46240234375
 10
-54.6650390625
 20
854.46240234375
 10
-54.6650390625
 20
854.46240234375
 10
-54.712890625
 20
854.4638671875
 10
-54.712890625
 20
854.4638671875
 10
-54.712890625
 20
854.4638671875
 10
-54.6689453125
 20
854.6357421875
 10
-54.6689453125
 20
854.6357421875
 10
-54.6689453125
 20
854.6357421875
 10
-53.81591796875
 20
855.55517578125
 10
-53.81591796875
 20
855.55517578125
 10
-53.81591796875
 20
855.55517578125
 10
-53.654296875
 20
855.62890625
 10
-53.654296875
 20
855.62890625
 10
-53.654296875
 20
855.62890625
 10
-53.654296875
 20
855.62890625
 10
-53.654296875
 20
855.62890625
 10
-53.654296875
 20
855.62890625
 10
-53.654296875
 20
855.62890625
 10
-53.654296875
 20
855.62890625
 97
        0
 75
     0
 76
     1
 98
        0
  0
POLYLINE
  5
3E
330
1F
100
AcDbEntity
  8
Layer 1
370
     0
100
AcDb2dPolyline
 66
     1
 10
0.0
 20
0.0
 30
0.0
  0
VERTEX
  5
3F
330
3E
100
AcDbEntity
  8
Layer 1
370
     0
100
AcDbVertex
100
AcDb2dVertex
 10
469.080078125
 20
829.052734375
 30
0.0
  0
VERTEX
  5
40
330
3E
100
AcDbEntity
  8
Layer 1
370
     0
100
AcDbVertex
100
AcDb2dVertex
 10
469.09765625
 20
829.0888671875
 30
0.0
  0
VERTEX
  5
41
330
3E
100
AcDbEntity
  8
Layer 1
370
     0
100
AcDbVertex
100
AcDb2dVertex
 10
469.2041015625
 20
829.1416015625
 30
0.0
  0
VERTEX
  5
42
330
3E
100
AcDbEntity
  8
Layer 1
370
     0
100
AcDbVertex
100
AcDb2dVertex
 10
469.328125
 20
829.1767578125
 30
0.0
  0
VERTEX
  5
43
330
3E
100
AcDbEntity
  8
Layer 1
370
     0
100
AcDbVertex
100
AcDb2dVertex
 10
469.3984375
 20
829.15869140625
 30
0.0
  0
VERTEX
  5
44
330
3E
100
AcDbEntity
  8
Layer 1
370
     0
100
AcDbVertex
100
AcDb2dVertex
 10
470.69921875
 20
819.14794921875
 30
0.0
  0
VERTEX
  5
45
330
3E
100
AcDbEntity
  8
Layer 1
370
     0
100
AcDbVertex
100
AcDb2dVertex
 10
470.66796875
 20
818.7822265625
 30
0.0
  0
VERTEX
  5
46
330
3E
100
AcDbEntity
  8
Layer 1
370
     0
100
AcDbVertex
100
AcDb2dVertex
 10
470.5751953125
 20
818.79931640625
 30
0.0
  0
VERTEX
  5
47
330
3E
100
AcDbEntity
  8
Layer 1
370
     0
100
AcDbVertex
100
AcDb2dVertex
 10
464.0673828125
 20
817.95361328125
 30
0.0
  0
VERTEX
  5
48
330
3E
100
AcDbEntity
  8
Layer 1
370
     0
100
AcDbVertex
100
AcDb2dVertex
 10
456.427734375
 20
816.943359375
 30
0.0
  0
VERTEX
  5
49
330
3E
100
AcDbEntity
  8
Layer 1
370
     0
100
AcDbVertex
100
AcDb2dVertex
 10
456.1630859375
 20
816.982421875
 30
0.0
  0
VERTEX
  5
4A
330
3E
100
AcDbEntity
  8
Layer 1
370
     0
100
AcDbVertex
100
AcDb2dVertex
 10
454.7705078125
 20
826.64013671875
 30
0.0
  0
VERTEX
  5
4B
330
3E
100
AcDbEntity
  8
Layer 1
370
     0
100
AcDbVertex
100
AcDb2dVertex
 10
454.7861328125
 20
826.72314453125
 30
0.0
  0
VERTEX
  5
4C
330
3E
100
AcDbEntity
  8
Layer 1
370
     0
100
AcDbVertex
100
AcDb2dVertex
 10
458.2509765625
 20
827.3115234375
 30
0.0
  0
VERTEX
  5
4D
330
3E
100
AcDbEntity
  8
Layer 1
370
     0
100
AcDbVertex
100
AcDb2dVertex
 10
458.2802734375
 20
827.3583984375
 30
0.0
  0
VERTEX
  5
4E
330
3E
100
AcDbEntity
  8
Layer 1
370
     0
100
AcDbVertex
100
AcDb2dVertex
 10
469.080078125
 20
829.052734375
 30
0.0
  0
VERTEX
  5
4F
330
3E
100
AcDbEntity
  8
Layer 1
370
     0
100
AcDbVertex
100
AcDb2dVertex
 10
469.080078125
 20
829.052734375
 30
0.0
  0
SEQEND
  5
50
330
3E
100
AcDbEntity
  8
Layer 1
370
     0
  0
HATCH
  5
51
330
1F
100
AcDbEntity
  8
Layer 1
 62
     7
420
 16777215
100
AcDbHatch
 10
0.0
 20
0.0
 30
0.0
210
0.0
220
0.0
230
1.0
  2
SOLID
 70
     1
 71
     0
 91
        1
 92
        1
 93
       15
 72
     1
 10
469.080078125
 20
829.052734375
 11
469.09765625
 21
829.0888671875
 72
     1
 10
469.09765625
 20
829.0888671875
 11
469.2041015625
 21
829.1416015625
 72
     1
 10
469.2041015625
 20
829.1416015625
 11
469.328125
 21
829.1767578125
 72
     1
 10
469.328125
 20
829.1767578125
 11
469.3984375
 21
829.15869140625
 72
     1
 10
469.3984375
 20
829.15869140625
 11
470.69921875
 21
819.14794921875
 72
     1
 10
470.69921875
 20
819.14794921875
 11
470.66796875
 21
818.7822265625
 72
     1
 10
470.66796875
 20
818.7822265625
 11
470.5751953125
 21
818.79931640625
 72
     1
 10
470.5751953125
 20
818.79931640625
 11
464.0673828125
 21
817.95361328125
 72
     1
 10
464.0673828125
 20
817.95361328125
 11
456.427734375
 21
816.943359375
 72
     1
 10
456.427734375
 20
816.943359375
 11
456.1630859375
 21
816.982421875
 72
     1
 10
456.1630859375
 20
816.982421875
 11
454.7705078125
 21
826.64013671875
 72
     1
 10
454.7705078125
 20
826.64013671875
 11
454.7861328125
 21
826.72314453125
 72
     1
 10
454.7861328125
 20
826.72314453125
 11
458.2509765625
 21
827.3115234375
 72
     1
 10
458.2509765625
 20
827.3115234375
 11
458.2802734375
 21
827.3583984375
 72
     1
 10
458.2802734375
 20
827.3583984375
 11
469.080078125
 21
829.052734375
 97
        0
 75
     0
 76
     1
 98
        0
  0
POLYLINE
  5
52
330
1F
100
AcDbEntity
  8
Layer 1
370
     0
100
AcDb2dPolyline
 66
     1
 10
0.0
 20
0.0
 30
0.0
  0
VERTEX
  5
53
330
52
100
AcDbEntity
  8
Layer 1
370
     0
100
AcDbVertex
100
AcDb2dVertex
 10
472.3623046875
 20
796.970703125
 30
0.0
  0
VERTEX
  5
54
330
52
100
AcDbEntity
  8
Layer 1
370
     0
100
AcDbVertex
100
AcDb2dVertex
 10
472.5341796875
 20
796.88671875
 30
0.0
  0
VERTEX
  5
55
330
52
100
AcDbEntity
  8
Layer 1
370
     0
100
AcDbVertex
100
AcDb2dVertex
 10
472.6171875
 20
796.78369140625
 30
0.0
  0
VERTEX
  5
56
330
52
100
AcDbEntity
  8
Layer 1
370
     0
100
AcDbVertex
100
AcDb2dVertex
 10
473.103515625
 20
790.61767578125
 30
0.0
  0
VERTEX
  5
57
330
52
100
AcDbEntity
  8
Layer 1
370
     0
100
AcDbVertex
100
AcDb2dVertex
 10
472.5341796875
 20
790.62451171875
 30
0.0
  0
VERTEX
  5
58
330
52
100
AcDbEntity
  8
Layer 1
370
     0
100
AcDbVertex
100
AcDb2dVertex
 10
466.2216796875
 20
789.876953125
 30
0.0
  0
VERTEX
  5
59
330
52
100
AcDbEntity
  8
Layer 1
370
     0
100
AcDbVertex
100
AcDb2dVertex
 10
465.5859375
 20
796.017578125
 30
0.0
  0
VERTEX
  5
5A
330
52
100
AcDbEntity
  8
Layer 1
370
     0
100
AcDbVertex
100
AcDb2dVertex
 10
471.765625
 20
796.89111328125
 30
0.0
  0
VERTEX
  5
5B
330
52
100
AcDbEntity
  8
Layer 1
370
     0
100
AcDbVertex
100
AcDb2dVertex
 10
472.3623046875
 20
796.970703125
 30
0.0
  0
SEQEND
  5
5C
330
52
100
AcDbEntity
  8
Layer 1
370
     0
  0
HATCH
  5
5D
330
1F
100
AcDbEntity
  8
Layer 1
 62
     7
420
 16777215
100
AcDbHatch
 10
0.0
 20
0.0
 30
0.0
210
0.0
220
0.0
230
1.0
  2
SOLID
 70
     1
 71
     0
 91
        1
 92
        1
 93
        8
 72
     1
 10
472.3623046875
 20
796.970703125
 11
472.5341796875
 21
796.88671875
 72
     1
 10
472.5341796875
 20
796.88671875
 11
472.6171875
 21
796.78369140625
 72
     1
 10
472.6171875
 20
796.78369140625
 11
473.103515625
 21
790.61767578125
 72
     1
 10
473.103515625
 20
790.61767578125
 11
472.5341796875
 21
790.62451171875
 72
     1
 10
472.5341796875
 20
790.62451171875
 11
466.2216796875
 21
789.876953125
 72
     1
 10
466.2216796875
 20
789.876953125
 11
465.5859375
 21
796.017578125
 72
     1
 10
465.5859375
 20
796.017578125
 11
471.765625
 21
796.89111328125
 72
     1
 10
471.765625
 20
796.89111328125
 11
472.3623046875
 21
796.970703125
 97
        0
 75
     0
 76
     1
 98
        0
  0
SPLINE
  5
5E
330
1F
100
AcDbEntity
  8
Layer 1
370
     0
100
AcDbSpline
210
0.0
220
0.0
230
1.0
 70
    11
 71
     3
 72
   110
 73
   106
 74
     0
 42
0.0000000001
 43
0.0000000001
 40
0.0
 40
0.0
 40
0.0
 40
0.0
 40
1.0
 40
1.0
 40
1.0
 40
2.0
 40
2.0
 40
2.0
 40
3.0
 40
3.0
 40
3.0
 40
4.0
 40
4.0
 40
4.0
 40
5.0
 40
5.0
 40
5.0
 40
6.0
 40
6.0
 40
6.0
 40
7.0
 40
7.0
 40
7.0
 40
8.0
 40
8.0
 40
8.0
 40
9.0
 40
9.0
 40
9.0
 40
10.0
 40
10.0
 40
10.0
 40
11.0
 40
11.0
 40
11.0
 40
12.0
 40
12.0
 40
12.0
 40
13.0
 40
13.0
 40
13.0
 40
14.0
 40
14.0
 40
14.0
 40
15.0
 40
15.0
 40
15.0
 40
16.0
 40
16.0
 40
16.0
 40
17.0
 40
17.0
 40
17.0
 40
18.0
 40
18.0
 40
18.0
 40
19.0
 40
19.0
 40
19.0
 40
20.0
 40
20.0
 40
20.0
 40
21.0
 40
21.0
 40
21.0
 40
22.0
 40
22.0
 40
22.0
 40
23.0
 40
23.0
 40
23.0
 40
24.0
 40
24.0
 40
24.0
 40
25.0
 40
25.0
 40
25.0
 40
26.0
 40
26.0
 40
26.0
 40
27.0
 40
27.0
 40
27.0
 40
28.0
 40
28.0
 40
28.0
 40
29.0
 40
29.0
 40
29.0
 40
30.0
 40
30.0
 40
30.0
 40
31.0
 40
31.0
 40
31.0
 40
32.0
 40
32.0
 40
32.0
 40
33.0
 40
33.0
 40
33.0
 40
34.0
 40
34.0
 40
34.0
 40
35.0
 40
35.0
 40
35.0
 40
35.0
 10
-63.60693359375
 20
779.39453125
 30
0.0
 10
-63.60693359375
 20
779.39453125
 30
0.0
 10
-63.60693359375
 20
779.50048828125
 30
0.0
 10
-63.60693359375
 20
779.50048828125
 30
0.0
 10
-63.60693359375
 20
779.50048828125
 30
0.0
 10
-63.2890625
 20
779.28857421875
 30
0.0
 10
-63.2890625
 20
779.28857421875
 30
0.0
 10
-63.2890625
 20
779.28857421875
 30
0.0
 10
-62.86572265625
 20
778.54736328125
 30
0.0
 10
-62.86572265625
 20
778.54736328125
 30
0.0
 10
-62.86572265625
 20
778.54736328125
 30
0.0
 10
-62.4423828125
 20
778.1240234375
 30
0.0
 10
-62.4423828125
 20
778.1240234375
 30
0.0
 10
-62.4423828125
 20
778.1240234375
 30
0.0
 10
-62.41357421875
 20
777.91357421875
 30
0.0
 10
-62.41357421875
 20
777.91357421875
 30
0.0
 10
-62.41357421875
 20
777.91357421875
 30
0.0
 10
-62.587890625
 20
777.7294921875
 30
0.0
 10
-62.587890625
 20
777.7294921875
 30
0.0
 10
-62.587890625
 20
777.7294921875
 30
0.0
 10
-63.2890625
 20
777.27685546875
 30
0.0
 10
-63.2890625
 20
777.27685546875
 30
0.0
 10
-63.2890625
 20
777.27685546875
 30
0.0
 10
-63.712890625
 20
776.853515625
 30
0.0
 10
-63.712890625
 20
776.853515625
 30
0.0
 10
-63.712890625
 20
776.853515625
 30
0.0
 10
-64.2421875
 20
776.6416015625
 30
0.0
 10
-64.2421875
 20
776.6416015625
 30
0.0
 10
-64.2421875
 20
776.6416015625
 30
0.0
 10
-64.666015625
 20
776.2177734375
 30
0.0
 10
-64.666015625
 20
776.2177734375
 30
0.0
 10
-64.666015625
 20
776.2177734375
 30
0.0
 10
-65.1953125
 20
775.900390625
 30
0.0
 10
-65.1953125
 20
775.900390625
 30
0.0
 10
-65.1953125
 20
775.900390625
 30
0.0
 10
-65.61865234375
 20
775.47705078125
 30
0.0
 10
-65.61865234375
 20
775.47705078125
 30
0.0
 10
-65.61865234375
 20
775.47705078125
 30
0.0
 10
-65.689453125
 20
775.4443359375
 30
0.0
 10
-65.689453125
 20
775.4443359375
 30
0.0
 10
-65.689453125
 20
775.4443359375
 30
0.0
 10
-65.85986328125
 20
775.40771484375
 30
0.0
 10
-65.85986328125
 20
775.40771484375
 30
0.0
 10
-65.85986328125
 20
775.40771484375
 30
0.0
 10
-65.9365234375
 20
775.37109375
 30
0.0
 10
-65.9365234375
 20
775.37109375
 30
0.0
 10
-65.9365234375
 20
775.37109375
 30
0.0
 10
-66.06884765625
 20
775.2568359375
 30
0.0
 10
-66.06884765625
 20
775.2568359375
 30
0.0
 10
-66.06884765625
 20
775.2568359375
 30
0.0
 10
-66.12255859375
 20
775.23681640625
 30
0.0
 10
-66.12255859375
 20
775.23681640625
 30
0.0
 10
-66.12255859375
 20
775.23681640625
 30
0.0
 10
-66.35986328125
 20
775.5830078125
 30
0.0
 10
-66.35986328125
 20
775.5830078125
 30
0.0
 10
-66.35986328125
 20
775.5830078125
 30
0.0
 10
-66.51953125
 20
775.72802734375
 30
0.0
 10
-66.51953125
 20
775.72802734375
 30
0.0
 10
-66.51953125
 20
775.72802734375
 30
0.0
 10
-66.99755859375
 20
776.43359375
 30
0.0
 10
-66.99755859375
 20
776.43359375
 30
0.0
 10
-66.99755859375
 20
776.43359375
 30
0.0
 10
-67.37890625
 20
776.7802734375
 30
0.0
 10
-67.37890625
 20
776.7802734375
 30
0.0
 10
-67.37890625
 20
776.7802734375
 30
0.0
 10
-67.345703125
 20
776.8447265625
 30
0.0
 10
-67.345703125
 20
776.8447265625
 30
0.0
 10
-67.345703125
 20
776.8447265625
 30
0.0
 10
-66.9951171875
 20
777.1708984375
 30
0.0
 10
-66.9951171875
 20
777.1708984375
 30
0.0
 10
-66.9951171875
 20
777.1708984375
 30
0.0
 10
-66.4658203125
 20
777.3828125
 30
0.0
 10
-66.4658203125
 20
777.3828125
 30
0.0
 10
-66.4658203125
 20
777.3828125
 30
0.0
 10
-65.40673828125
 20
778.22998046875
 30
0.0
 10
-65.40673828125
 20
778.22998046875
 30
0.0
 10
-65.40673828125
 20
778.22998046875
 30
0.0
 10
-65.1611328125
 20
778.2998046875
 30
0.0
 10
-65.1611328125
 20
778.2998046875
 30
0.0
 10
-65.1611328125
 20
778.2998046875
 30
0.0
 10
-65.08935546875
 20
778.3359375
 30
0.0
 10
-65.08935546875
 20
778.3359375
 30
0.0
 10
-65.08935546875
 20
778.3359375
 30
0.0
 10
-65.00244140625
 20
778.43310546875
 30
0.0
 10
-65.00244140625
 20
778.43310546875
 30
0.0
 10
-65.00244140625
 20
778.43310546875
 30
0.0
 10
-64.861328125
 20
778.6669921875
 30
0.0
 10
-64.861328125
 20
778.6669921875
 30
0.0
 10
-64.861328125
 20
778.6669921875
 30
0.0
 10
-64.771484375
 20
778.75927734375
 30
0.0
 10
-64.771484375
 20
778.75927734375
 30
0.0
 10
-64.771484375
 20
778.75927734375
 30
0.0
 10
-64.2421875
 20
778.970703125
 30
0.0
 10
-64.2421875
 20
778.970703125
 30
0.0
 10
-64.2421875
 20
778.970703125
 30
0.0
 10
-63.79345703125
 20
779.345703125
 30
0.0
 10
-63.79345703125
 20
779.345703125
 30
0.0
 10
-63.79345703125
 20
779.345703125
 30
0.0
 10
-63.60693359375
 20
779.39453125
 30
0.0
 10
-63.60693359375
 20
779.39453125
 30
0.0
 10
-63.60693359375
 20
779.39453125
 30
0.0
 10
-63.60693359375
 20
779.39453125
 30
0.0
 10
-63.60693359375
 20
779.39453125
 30
0.0
 10
-63.60693359375
 20
779.39453125
 30
0.0
 10
-63.60693359375
 20
779.39453125
 30
0.0
 10
-63.60693359375
 20
779.39453125
 30
0.0
  0
HATCH
  5
5F
330
1F
100
AcDbEntity
  8
Layer 1
 62
     7
420
 16777215
100
AcDbHatch
 10
0.0
 20
0.0
 30
0.0
210
0.0
220
0.0
230
1.0
  2
SOLID
 70
     1
 71
     0
 91
        1
 92
        1
 93
        1
 72
     4
 94
        3
 73
     0
 74
     1
 95
      110
 96
      106
 40
0.0
 40
0.0
 40
0.0
 40
0.0
 40
1.0
 40
1.0
 40
1.0
 40
2.0
 40
2.0
 40
2.0
 40
3.0
 40
3.0
 40
3.0
 40
4.0
 40
4.0
 40
4.0
 40
5.0
 40
5.0
 40
5.0
 40
6.0
 40
6.0
 40
6.0
 40
7.0
 40
7.0
 40
7.0
 40
8.0
 40
8.0
 40
8.0
 40
9.0
 40
9.0
 40
9.0
 40
10.0
 40
10.0
 40
10.0
 40
11.0
 40
11.0
 40
11.0
 40
12.0
 40
12.0
 40
12.0
 40
13.0
 40
13.0
 40
13.0
 40
14.0
 40
14.0
 40
14.0
 40
15.0
 40
15.0
 40
15.0
 40
16.0
 40
16.0
 40
16.0
 40
17.0
 40
17.0
 40
17.0
 40
18.0
 40
18.0
 40
18.0
 40
19.0
 40
19.0
 40
19.0
 40
20.0
 40
20.0
 40
20.0
 40
21.0
 40
21.0
 40
21.0
 40
22.0
 40
22.0
 40
22.0
 40
23.0
 40
23.0
 40
23.0
 40
24.0
 40
24.0
 40
24.0
 40
25.0
 40
25.0
 40
25.0
 40
26.0
 40
26.0
 40
26.0
 40
27.0
 40
27.0
 40
27.0
 40
28.0
 40
28.0
 40
28.0
 40
29.0
 40
29.0
 40
29.0
 40
30.0
 40
30.0
 40
30.0
 40
31.0
 40
31.0
 40
31.0
 40
32.0
 40
32.0
 40
32.0
 40
33.0
 40
33.0
 40
33.0
 40
34.0
 40
34.0
 40
34.0
 40
35.0
 40
35.0
 40
35.0
 40
35.0
 10
-63.60693359375
 20
779.39453125
 10
-63.60693359375
 20
779.39453125
 10
-63.60693359375
 20
779.50048828125
 10
-63.60693359375
 20
779.50048828125
 10
-63.60693359375
 20
779.50048828125
 10
-63.2890625
 20
779.28857421875
 10
-63.2890625
 20
779.28857421875
 10
-63.2890625
 20
779.28857421875
 10
-62.86572265625
 20
778.54736328125
 10
-62.86572265625
 20
778.54736328125
 10
-62.86572265625
 20
778.54736328125
 10
-62.4423828125
 20
778.1240234375
 10
-62.4423828125
 20
778.1240234375
 10
-62.4423828125
 20
778.1240234375
 10
-62.41357421875
 20
777.91357421875
 10
-62.41357421875
 20
777.91357421875
 10
-62.41357421875
 20
777.91357421875
 10
-62.587890625
 20
777.7294921875
 10
-62.587890625
 20
777.7294921875
 10
-62.587890625
 20
777.7294921875
 10
-63.2890625
 20
777.27685546875
 10
-63.2890625
 20
777.27685546875
 10
-63.2890625
 20
777.27685546875
 10
-63.712890625
 20
776.853515625
 10
-63.712890625
 20
776.853515625
 10
-63.712890625
 20
776.853515625
 10
-64.2421875
 20
776.6416015625
 10
-64.2421875
 20
776.6416015625
 10
-64.2421875
 20
776.6416015625
 10
-64.666015625
 20
776.2177734375
 10
-64.666015625
 20
776.2177734375
 10
-64.666015625
 20
776.2177734375
 10
-65.1953125
 20
775.900390625
 10
-65.1953125
 20
775.900390625
 10
-65.1953125
 20
775.900390625
 10
-65.61865234375
 20
775.47705078125
 10
-65.61865234375
 20
775.47705078125
 10
-65.61865234375
 20
775.47705078125
 10
-65.689453125
 20
775.4443359375
 10
-65.689453125
 20
775.4443359375
 10
-65.689453125
 20
775.4443359375
 10
-65.85986328125
 20
775.40771484375
 10
-65.85986328125
 20
775.40771484375
 10
-65.85986328125
 20
775.40771484375
 10
-65.9365234375
 20
775.37109375
 10
-65.9365234375
 20
775.37109375
 10
-65.9365234375
 20
775.37109375
 10
-66.06884765625
 20
775.2568359375
 10
-66.06884765625
 20
775.2568359375
 10
-66.06884765625
 20
775.2568359375
 10
-66.12255859375
 20
775.23681640625
 10
-66.12255859375
 20
775.23681640625
 10
-66.12255859375
 20
775.23681640625
 10
-66.35986328125
 20
775.5830078125
 10
-66.35986328125
 20
775.5830078125
 10
-66.35986328125
 20
775.5830078125
 10
-66.51953125
 20
775.72802734375
 10
-66.51953125
 20
775.72802734375
 10
-66.51953125
 20
775.72802734375
 10
-66.99755859375
 20
776.43359375
 10
-66.99755859375
 20
776.43359375
 10
-66.99755859375
 20
776.43359375
 10
-67.37890625
 20
776.7802734375
 10
-67.37890625
 20
776.7802734375
 10
-67.37890625
 20
776.7802734375
 10
-67.345703125
 20
776.8447265625
 10
-67.345703125
 20
776.8447265625
 10
-67.345703125
 20
776.8447265625
 10
-66.9951171875
 20
777.1708984375
 10
-66.9951171875
 20
777.1708984375
 10
-66.9951171875
 20
777.1708984375
 10
-66.4658203125
 20
777.3828125
 10
-66.4658203125
 20
777.3828125
 10
-66.4658203125
 20
777.3828125
 10
-65.40673828125
 20
778.22998046875
 10
-65.40673828125
 20
778.22998046875
 10
-65.40673828125
 20
778.22998046875
 10
-65.1611328125
 20
778.2998046875
 10
-65.1611328125
 20
778.2998046875
 10
-65.1611328125
 20
778.2998046875
 10
-65.08935546875
 20
778.3359375
 10
-65.08935546875
 20
778.3359375
 10
-65.08935546875
 20
778.3359375
 10
-65.00244140625
 20
778.43310546875
 10
-65.00244140625
 20
778.43310546875
 10
-65.00244140625
 20
778.43310546875
 10
-64.861328125
 20
778.6669921875
 10
-64.861328125
 20
778.6669921875
 10
-64.861328125
 20
778.6669921875
 10
-64.771484375
 20
778.75927734375
 10
-64.771484375
 20
778.75927734375
 10
-64.771484375
 20
778.75927734375
 10
-64.2421875
 20
778.970703125
 10
-64.2421875
 20
778.970703125
 10
-64.2421875
 20
778.970703125
 10
-63.79345703125
 20
779.345703125
 10
-63.79345703125
 20
779.345703125
 10
-63.79345703125
 20
779.345703125
 10
-63.60693359375
 20
779.39453125
 10
-63.60693359375
 20
779.39453125
 10
-63.60693359375
 20
779.39453125
 10
-63.60693359375
 20
779.39453125
 10
-63.60693359375
 20
779.39453125
 10
-63.60693359375
 20
779.39453125
 10
-63.60693359375
 20
779.39453125
 10
-63.60693359375
 20
779.39453125
 97
        0
 75
     0
 76
     1
 98
        0
  0
SPLINE
  5
60
330
1F
100
AcDbEntity
  8
Layer 1
370
     0
100
AcDbSpline
210
0.0
220
0.0
230
1.0
 70
    11
 71
     3
 72
    86
 73
    82
 74
     0
 42
0.0000000001
 43
0.0000000001
 40
0.0
 40
0.0
 40
0.0
 40
0.0
 40
1.0
 40
1.0
 40
1.0
 40
2.0
 40
2.0
 40
2.0
 40
3.0
 40
3.0
 40
3.0
 40
4.0
 40
4.0
 40
4.0
 40
5.0
 40
5.0
 40
5.0
 40
6.0
 40
6.0
 40
6.0
 40
7.0
 40
7.0
 40
7.0
 40
8.0
 40
8.0
 40
8.0
 40
9.0
 40
9.0
 40
9.0
 40
10.0
 40
10.0
 40
10.0
 40
11.0
 40
11.0
 40
11.0
 40
12.0
 40
12.0
 40
12.0
 40
13.0
 40
13.0
 40
13.0
 40
14.0
 40
14.0
 40
14.0
 40
15.0
 40
15.0
 40
15.0
 40
16.0
 40
16.0
 40
16.0
 40
17.0
 40
17.0
 40
17.0
 40
18.0
 40
18.0
 40
18.0
 40
19.0
 40
19.0
 40
19.0
 40
20.0
 40
20.0
 40
20.0
 40
21.0
 40
21.0
 40
21.0
 40
22.0
 40
22.0
 40
22.0
 40
23.0
 40
23.0
 40
23.0
 40
24.0
 40
24.0
 40
24.0
 40
25.0
 40
25.0
 40
25.0
 40
26.0
 40
26.0
 40
26.0
 40
27.0
 40
27.0
 40
27.0
 40
27.0
 10
-68.4775390625
 20
743.0771484375
 30
0.0
 10
-68.4775390625
 20
743.0771484375
 30
0.0
 10
-68.4775390625
 20
743.18310546875
 30
0.0
 10
-68.4775390625
 20
743.18310546875
 30
0.0
 10
-68.4775390625
 20
743.18310546875
 30
0.0
 10
-68.1572265625
 20
742.9521484375
 30
0.0
 10
-68.1572265625
 20
742.9521484375
 30
0.0
 10
-68.1572265625
 20
742.9521484375
 30
0.0
 10
-67.84228515625
 20
742.5478515625
 30
0.0
 10
-67.84228515625
 20
742.5478515625
 30
0.0
 10
-67.84228515625
 20
742.5478515625
 30
0.0
 10
-67.63037109375
 20
742.12451171875
 30
0.0
 10
-67.63037109375
 20
742.12451171875
 30
0.0
 10
-67.63037109375
 20
742.12451171875
 30
0.0
 10
-66.97216796875
 20
741.45458984375
 30
0.0
 10
-66.97216796875
 20
741.45458984375
 30
0.0
 10
-66.97216796875
 20
741.45458984375
 30
0.0
 10
-66.9658203125
 20
741.3671875
 30
0.0
 10
-66.9658203125
 20
741.3671875
 30
0.0
 10
-66.9658203125
 20
741.3671875
 30
0.0
 10
-67.3125
 20
741.0654296875
 30
0.0
 10
-67.3125
 20
741.0654296875
 30
0.0
 10
-67.3125
 20
741.0654296875
 30
0.0
 10
-67.5068359375
 20
740.791015625
 30
0.0
 10
-67.5068359375
 20
740.791015625
 30
0.0
 10
-67.5068359375
 20
740.791015625
 30
0.0
 10
-67.63037109375
 20
740.748046875
 30
0.0
 10
-67.63037109375
 20
740.748046875
 30
0.0
 10
-67.63037109375
 20
740.748046875
 30
0.0
 10
-69.32470703125
 20
739.15966796875
 30
0.0
 10
-69.32470703125
 20
739.15966796875
 30
0.0
 10
-69.32470703125
 20
739.15966796875
 30
0.0
 10
-69.40625
 20
738.982421875
 30
0.0
 10
-69.40625
 20
738.982421875
 30
0.0
 10
-69.40625
 20
738.982421875
 30
0.0
 10
-69.4306640625
 20
738.94775390625
 30
0.0
 10
-69.4306640625
 20
738.94775390625
 30
0.0
 10
-69.4306640625
 20
738.94775390625
 30
0.0
 10
-69.74462890625
 20
738.82958984375
 30
0.0
 10
-69.74462890625
 20
738.82958984375
 30
0.0
 10
-69.74462890625
 20
738.82958984375
 30
0.0
 10
-69.93896484375
 20
738.6845703125
 30
0.0
 10
-69.93896484375
 20
738.6845703125
 30
0.0
 10
-69.93896484375
 20
738.6845703125
 30
0.0
 10
-70.0146484375
 20
738.7265625
 30
0.0
 10
-70.0146484375
 20
738.7265625
 30
0.0
 10
-70.0146484375
 20
738.7265625
 30
0.0
 10
-71.3154296875
 20
740.2890625
 30
0.0
 10
-71.3154296875
 20
740.2890625
 30
0.0
 10
-71.3154296875
 20
740.2890625
 30
0.0
 10
-71.3125
 20
740.38671875
 30
0.0
 10
-71.3125
 20
740.38671875
 30
0.0
 10
-71.3125
 20
740.38671875
 30
0.0
 10
-71.12451171875
 20
740.5361328125
 30
0.0
 10
-71.12451171875
 20
740.5361328125
 30
0.0
 10
-71.12451171875
 20
740.5361328125
 30
0.0
 10
-71.1005859375
 20
740.56787109375
 30
0.0
 10
-71.1005859375
 20
740.56787109375
 30
0.0
 10
-71.1005859375
 20
740.56787109375
 30
0.0
 10
-71.095703125
 20
740.60107421875
 30
0.0
 10
-71.095703125
 20
740.60107421875
 30
0.0
 10
-71.095703125
 20
740.60107421875
 30
0.0
 10
-71.07861328125
 20
740.6279296875
 30
0.0
 10
-71.07861328125
 20
740.6279296875
 30
0.0
 10
-71.07861328125
 20
740.6279296875
 30
0.0
 10
-71.0185546875
 20
740.64208984375
 30
0.0
 10
-71.0185546875
 20
740.64208984375
 30
0.0
 10
-71.0185546875
 20
740.64208984375
 30
0.0
 10
-68.689453125
 20
742.86572265625
 30
0.0
 10
-68.689453125
 20
742.86572265625
 30
0.0
 10
-68.689453125
 20
742.86572265625
 30
0.0
 10
-68.55908203125
 20
743.0478515625
 30
0.0
 10
-68.55908203125
 20
743.0478515625
 30
0.0
 10
-68.55908203125
 20
743.0478515625
 30
0.0
 10
-68.4775390625
 20
743.0771484375
 30
0.0
 10
-68.4775390625
 20
743.0771484375
 30
0.0
 10
-68.4775390625
 20
743.0771484375
 30
0.0
 10
-68.4775390625
 20
743.0771484375
 30
0.0
 10
-68.4775390625
 20
743.0771484375
 30
0.0
 10
-68.4775390625
 20
743.0771484375
 30
0.0
 10
-68.4775390625
 20
743.0771484375
 30
0.0
 10
-68.4775390625
 20
743.0771484375
 30
0.0
  0
HATCH
  5
61
330
1F
100
AcDbEntity
  8
Layer 1
 62
     7
420
 16777215
100
AcDbHatch
 10
0.0
 20
0.0
 30
0.0
210
0.0
220
0.0
230
1.0
  2
SOLID
 70
     1
 71
     0
 91
        1
 92
        1
 93
        1
 72
     4
 94
        3
 73
     0
 74
     1
 95
       86
 96
       82
 40
0.0
 40
0.0
 40
0.0
 40
0.0
 40
1.0
 40
1.0
 40
1.0
 40
2.0
 40
2.0
 40
2.0
 40
3.0
 40
3.0
 40
3.0
 40
4.0
 40
4.0
 40
4.0
 40
5.0
 40
5.0
 40
5.0
 40
6.0
 40
6.0
 40
6.0
 40
7.0
 40
7.0
 40
7.0
 40
8.0
 40
8.0
 40
8.0
 40
9.0
 40
9.0
 40
9.0
 40
10.0
 40
10.0
 40
10.0
 40
11.0
 40
11.0
 40
11.0
 40
12.0
 40
12.0
 40
12.0
 40
13.0
 40
13.0
 40
13.0
 40
14.0
 40
14.0
 40
14.0
 40
15.0
 40
15.0
 40
15.0
 40
16.0
 40
16.0
 40
16.0
 40
17.0
 40
17.0
 40
17.0
 40
18.0
 40
18.0
 40
18.0
 40
19.0
 40
19.0
 40
19.0
 40
20.0
 40
20.0
 40
20.0
 40
21.0
 40
21.0
 40
21.0
 40
22.0
 40
22.0
 40
22.0
 40
23.0
 40
23.0
 40
23.0
 40
24.0
 40
24.0
 40
24.0
 40
25.0
 40
25.0
 40
25.0
 40
26.0
 40
26.0
 40
26.0
 40
27.0
 40
27.0
 40
27.0
 40
27.0
 10
-68.4775390625
 20
743.0771484375
 10
-68.4775390625
 20
743.0771484375
 10
-68.4775390625
 20
743.18310546875
 10
-68.4775390625
 20
743.18310546875
 10
-68.4775390625
 20
743.18310546875
 10
-68.1572265625
 20
742.9521484375
 10
-68.1572265625
 20
742.9521484375
 10
-68.1572265625
 20
742.9521484375
 10
-67.84228515625
 20
742.5478515625
 10
-67.84228515625
 20
742.5478515625
 10
-67.84228515625
 20
742.5478515625
 10
-67.63037109375
 20
742.12451171875
 10
-67.63037109375
 20
742.12451171875
 10
-67.63037109375
 20
742.12451171875
 10
-66.97216796875
 20
741.45458984375
 10
-66.97216796875
 20
741.45458984375
 10
-66.97216796875
 20
741.45458984375
 10
-66.9658203125
 20
741.3671875
 10
-66.9658203125
 20
741.3671875
 10
-66.9658203125
 20
741.3671875
 10
-67.3125
 20
741.0654296875
 10
-67.3125
 20
741.0654296875
 10
-67.3125
 20
741.0654296875
 10
-67.5068359375
 20
740.791015625
 10
-67.5068359375
 20
740.791015625
 10
-67.5068359375
 20
740.791015625
 10
-67.63037109375
 20
740.748046875
 10
-67.63037109375
 20
740.748046875
 10
-67.63037109375
 20
740.748046875
 10
-69.32470703125
 20
739.15966796875
 10
-69.32470703125
 20
739.15966796875
 10
-69.32470703125
 20
739.15966796875
 10
-69.40625
 20
738.982421875
 10
-69.40625
 20
738.982421875
 10
-69.40625
 20
738.982421875
 10
-69.4306640625
 20
738.94775390625
 10
-69.4306640625
 20
738.94775390625
 10
-69.4306640625
 20
738.94775390625
 10
-69.74462890625
 20
738.82958984375
 10
-69.74462890625
 20
738.82958984375
 10
-69.74462890625
 20
738.82958984375
 10
-69.93896484375
 20
738.6845703125
 10
-69.93896484375
 20
738.6845703125
 10
-69.93896484375
 20
738.6845703125
 10
-70.0146484375
 20
738.7265625
 10
-70.0146484375
 20
738.7265625
 10
-70.0146484375
 20
738.7265625
 10
-71.3154296875
 20
740.2890625
 10
-71.3154296875
 20
740.2890625
 10
-71.3154296875
 20
740.2890625
 10
-71.3125
 20
740.38671875
 10
-71.3125
 20
740.38671875
 10
-71.3125
 20
740.38671875
 10
-71.12451171875
 20
740.5361328125
 10
-71.12451171875
 20
740.5361328125
 10
-71.12451171875
 20
740.5361328125
 10
-71.1005859375
 20
740.56787109375
 10
-71.1005859375
 20
740.56787109375
 10
-71.1005859375
 20
740.56787109375
 10
-71.095703125
 20
740.60107421875
 10
-71.095703125
 20
740.60107421875
 10
-71.095703125
 20
740.60107421875
 10
-71.07861328125
 20
740.6279296875
 10
-71.07861328125
 20
740.6279296875
 10
-71.07861328125
 20
740.6279296875
 10
-71.0185546875
 20
740.64208984375
 10
-71.0185546875
 20
740.64208984375
 10
-71.0185546875
 20
740.64208984375
 10
-68.689453125
 20
742.86572265625
 10
-68.689453125
 20
742.86572265625
 10
-68.689453125
 20
742.86572265625
 10
-68.55908203125
 20
743.0478515625
 10
-68.55908203125
 20
743.0478515625
 10
-68.55908203125
 20
743.0478515625
 10
-68.4775390625
 20
743.0771484375
 10
-68.4775390625
 20
743.0771484375
 10
-68.4775390625
 20
743.0771484375
 10
-68.4775390625
 20
743.0771484375
 10
-68.4775390625
 20
743.0771484375
 10
-68.4775390625
 20
743.0771484375
 10
-68.4775390625
 20
743.0771484375
 10
-68.4775390625
 20
743.0771484375
 97
        0
 75
     0
 76
     1
 98
        0
  0
SPLINE
  5
62
330
1F
100
AcDbEntity
  8
Layer 1
370
     0
100
AcDbSpline
210
0.0
220
0.0
230
1.0
 70
    11
 71
     3
 72
    41
 73
    37
 74
     0
 42
0.0000000001
 43
0.0000000001
 40
0.0
 40
0.0
 40
0.0
 40
0.0
 40
1.0
 40
1.0
 40
1.0
 40
2.0
 40
2.0
 40
2.0
 40
3.0
 40
3.0
 40
3.0
 40
4.0
 40
4.0
 40
4.0
 40
5.0
 40
5.0
 40
5.0
 40
6.0
 40
6.0
 40
6.0
 40
7.0
 40
7.0
 40
7.0
 40
8.0
 40
8.0
 40
8.0
 40
9.0
 40
9.0
 40
9.0
 40
10.0
 40
10.0
 40
10.0
 40
11.0
 40
11.0
 40
11.0
 40
12.0
 40
12.0
 40
12.0
 40
12.0
 10
14.42724609375
 20
709.83056640625
 30
0.0
 10
14.42724609375
 20
709.83056640625
 30
0.0
 10
14.5078125
 20
709.908203125
 30
0.0
 10
14.5078125
 20
709.908203125
 30
0.0
 10
14.5078125
 20
709.908203125
 30
0.0
 10
14.560546875
 20
709.9296875
 30
0.0
 10
14.560546875
 20
709.9296875
 30
0.0
 10
14.560546875
 20
709.9296875
 30
0.0
 10
18.5302734375
 20
709.67724609375
 30
0.0
 10
18.5302734375
 20
709.67724609375
 30
0.0
 10
18.5302734375
 20
709.67724609375
 30
0.0
 10
18.7685546875
 20
709.619140625
 30
0.0
 10
18.7685546875
 20
709.619140625
 30
0.0
 10
18.7685546875
 20
709.619140625
 30
0.0
 10
18.5390625
 20
703.20166015625
 30
0.0
 10
18.5390625
 20
703.20166015625
 30
0.0
 10
18.5390625
 20
703.20166015625
 30
0.0
 10
18.46630859375
 20
703.1083984375
 30
0.0
 10
18.46630859375
 20
703.1083984375
 30
0.0
 10
18.46630859375
 20
703.1083984375
 30
0.0
 10
14.41357421875
 20
703.34912109375
 30
0.0
 10
14.41357421875
 20
703.34912109375
 30
0.0
 10
14.41357421875
 20
703.34912109375
 30
0.0
 10
14.3212890625
 20
703.3720703125
 30
0.0
 10
14.3212890625
 20
703.3720703125
 30
0.0
 10
14.3212890625
 20
703.3720703125
 30
0.0
 10
14.42333984375
 20
709.8115234375
 30
0.0
 10
14.42333984375
 20
709.8115234375
 30
0.0
 10
14.42333984375
 20
709.8115234375
 30
0.0
 10
14.42724609375
 20
709.83056640625
 30
0.0
 10
14.42724609375
 20
709.83056640625
 30
0.0
 10
14.42724609375
 20
709.83056640625
 30
0.0
 10
14.42724609375
 20
709.83056640625
 30
0.0
 10
14.42724609375
 20
709.83056640625
 30
0.0
 10
14.42724609375
 20
709.83056640625
 30
0.0
 10
14.42724609375
 20
709.83056640625
 30
0.0
 10
14.42724609375
 20
709.83056640625
 30
0.0
  0
HATCH
  5
63
330
1F
100
AcDbEntity
  8
Layer 1
 62
     7
420
 16777215
100
AcDbHatch
 10
0.0
 20
0.0
 30
0.0
210
0.0
220
0.0
230
1.0
  2
SOLID
 70
     1
 71
     0
 91
        1
 92
        1
 93
        1
 72
     4
 94
        3
 73
     0
 74
     1
 95
       41
 96
       37
 40
0.0
 40
0.0
 40
0.0
 40
0.0
 40
1.0
 40
1.0
 40
1.0
 40
2.0
 40
2.0
 40
2.0
 40
3.0
 40
3.0
 40
3.0
 40
4.0
 40
4.0
 40
4.0
 40
5.0
 40
5.0
 40
5.0
 40
6.0
 40
6.0
 40
6.0
 40
7.0
 40
7.0
 40
7.0
 40
8.0
 40
8.0
 40
8.0
 40
9.0
 40
9.0
 40
9.0
 40
10.0
 40
10.0
 40
10.0
 40
11.0
 40
11.0
 40
11.0
 40
12.0
 40
12.0
 40
12.0
 40
12.0
 10
14.42724609375
 20
709.83056640625
 10
14.42724609375
 20
709.83056640625
 10
14.5078125
 20
709.908203125
 10
14.5078125
 20
709.908203125
 10
14.5078125
 20
709.908203125
 10
14.560546875
 20
709.9296875
 10
14.560546875
 20
709.9296875
 10
14.560546875
 20
709.9296875
 10
18.5302734375
 20
709.67724609375
 10
18.5302734375
 20
709.67724609375
 10
18.5302734375
 20
709.67724609375
 10
18.7685546875
 20
709.619140625
 10
18.7685546875
 20
709.619140625
 10
18.7685546875
 20
709.619140625
 10
18.5390625
 20
703.20166015625
 10
18.5390625
 20
703.20166015625
 10
18.5390625
 20
703.20166015625
 10
18.46630859375
 20
703.1083984375
 10
18.46630859375
 20
703.1083984375
 10
18.46630859375
 20
703.1083984375
 10
14.41357421875
 20
703.34912109375
 10
14.41357421875
 20
703.34912109375
 10
14.41357421875
 20
703.34912109375
 10
14.3212890625
 20
703.3720703125
 10
14.3212890625
 20
703.3720703125
 10
14.3212890625
 20
703.3720703125
 10
14.42333984375
 20
709.8115234375
 10
14.42333984375
 20
709.8115234375
 10
14.42333984375
 20
709.8115234375
 10
14.42724609375
 20
709.83056640625
 10
14.42724609375
 20
709.83056640625
 10
14.42724609375
 20
709.83056640625
 10
14.42724609375
 20
709.83056640625
 10
14.42724609375
 20
709.83056640625
 10
14.42724609375
 20
709.83056640625
 10
14.42724609375
 20
709.83056640625
 10
14.42724609375
 20
709.83056640625
 97
        0
 75
     0
 76
     1
 98
        0
  0
SPLINE
  5
64
330
1F
100
AcDbEntity
  8
Layer 1
370
     0
100
AcDbSpline
210
0.0
220
0.0
230
1.0
 70
    11
 71
     3
 72
    41
 73
    37
 74
     0
 42
0.0000000001
 43
0.0000000001
 40
0.0
 40
0.0
 40
0.0
 40
0.0
 40
1.0
 40
1.0
 40
1.0
 40
2.0
 40
2.0
 40
2.0
 40
3.0
 40
3.0
 40
3.0
 40
4.0
 40
4.0
 40
4.0
 40
5.0
 40
5.0
 40
5.0
 40
6.0
 40
6.0
 40
6.0
 40
7.0
 40
7.0
 40
7.0
 40
8.0
 40
8.0
 40
8.0
 40
9.0
 40
9.0
 40
9.0
 40
10.0
 40
10.0
 40
10.0
 40
11.0
 40
11.0
 40
11.0
 40
12.0
 40
12.0
 40
12.0
 40
12.0
 10
19.19189453125
 20
709.51318359375
 30
0.0
 10
19.19189453125
 20
709.51318359375
 30
0.0
 10
19.50048828125
 20
709.61376953125
 30
0.0
 10
19.50048828125
 20
709.61376953125
 30
0.0
 10
19.50048828125
 20
709.61376953125
 30
0.0
 10
23.00390625
 20
709.4072265625
 30
0.0
 10
23.00390625
 20
709.4072265625
 30
0.0
 10
23.00390625
 20
709.4072265625
 30
0.0
 10
22.9091796875
 20
703.0029296875
 30
0.0
 10
22.9091796875
 20
703.0029296875
 30
0.0
 10
22.9091796875
 20
703.0029296875
 30
0.0
 10
22.89794921875
 20
702.9482421875
 30
0.0
 10
22.89794921875
 20
702.9482421875
 30
0.0
 10
22.89794921875
 20
702.9482421875
 30
0.0
 10
22.55859375
 20
702.8896484375
 30
0.0
 10
22.55859375
 20
702.8896484375
 30
0.0
 10
22.55859375
 20
702.8896484375
 30
0.0
 10
18.9677734375
 20
703.03173828125
 30
0.0
 10
18.9677734375
 20
703.03173828125
 30
0.0
 10
18.9677734375
 20
703.03173828125
 30
0.0
 10
18.87451171875
 20
703.05419921875
 30
0.0
 10
18.87451171875
 20
703.05419921875
 30
0.0
 10
18.87451171875
 20
703.05419921875
 30
0.0
 10
18.83349609375
 20
703.3310546875
 30
0.0
 10
18.83349609375
 20
703.3310546875
 30
0.0
 10
18.83349609375
 20
703.3310546875
 30
0.0
 10
19.181640625
 20
709.474609375
 30
0.0
 10
19.181640625
 20
709.474609375
 30
0.0
 10
19.181640625
 20
709.474609375
 30
0.0
 10
19.19189453125
 20
709.51318359375
 30
0.0
 10
19.19189453125
 20
709.51318359375
 30
0.0
 10
19.19189453125
 20
709.51318359375
 30
0.0
 10
19.19189453125
 20
709.51318359375
 30
0.0
 10
19.19189453125
 20
709.51318359375
 30
0.0
 10
19.19189453125
 20
709.51318359375
 30
0.0
 10
19.19189453125
 20
709.51318359375
 30
0.0
 10
19.19189453125
 20
709.51318359375
 30
0.0
  0
HATCH
  5
65
330
1F
100
AcDbEntity
  8
Layer 1
 62
     7
420
 16777215
100
AcDbHatch
 10
0.0
 20
0.0
 30
0.0
210
0.0
220
0.0
230
1.0
  2
SOLID
 70
     1
 71
     0
 91
        1
 92
        1
 93
        1
 72
     4
 94
        3
 73
     0
 74
     1
 95
       41
 96
       37
 40
0.0
 40
0.0
 40
0.0
 40
0.0
 40
1.0
 40
1.0
 40
1.0
 40
2.0
 40
2.0
 40
2.0
 40
3.0
 40
3.0
 40
3.0
 40
4.0
 40
4.0
 40
4.0
 40
5.0
 40
5.0
 40
5.0
 40
6.0
 40
6.0
 40
6.0
 40
7.0
 40
7.0
 40
7.0
 40
8.0
 40
8.0
 40
8.0
 40
9.0
 40
9.0
 40
9.0
 40
10.0
 40
10.0
 40
10.0
 40
11.0
 40
11.0
 40
11.0
 40
12.0
 40
12.0
 40
12.0
 40
12.0
 10
19.19189453125
 20
709.51318359375
 10
19.19189453125
 20
709.51318359375
 10
19.50048828125
 20
709.61376953125
 10
19.50048828125
 20
709.61376953125
 10
19.50048828125
 20
709.61376953125
 10
23.00390625
 20
709.4072265625
 10
23.00390625
 20
709.4072265625
 10
23.00390625
 20
709.4072265625
 10
22.9091796875
 20
703.0029296875
 10
22.9091796875
 20
703.0029296875
 10
22.9091796875
 20
703.0029296875
 10
22.89794921875
 20
702.9482421875
 10
22.89794921875
 20
702.9482421875
 10
22.89794921875
 20
702.9482421875
 10
22.55859375
 20
702.8896484375
 10
22.55859375
 20
702.8896484375
 10
22.55859375
 20
702.8896484375
 10
18.9677734375
 20
703.03173828125
 10
18.9677734375
 20
703.03173828125
 10
18.9677734375
 20
703.03173828125
 10
18.87451171875
 20
703.05419921875
 10
18.87451171875
 20
703.05419921875
 10
18.87451171875
 20
703.05419921875
 10
18.83349609375
 20
703.3310546875
 10
18.83349609375
 20
703.3310546875
 10
18.83349609375
 20
703.3310546875
 10
19.181640625
 20
709.474609375
 10
19.181640625
 20
709.474609375
 10
19.181640625
 20
709.474609375
 10
19.19189453125
 20
709.51318359375
 10
19.19189453125
 20
709.51318359375
 10
19.19189453125
 20
709.51318359375
 10
19.19189453125
 20
709.51318359375
 10
19.19189453125
 20
709.51318359375
 10
19.19189453125
 20
709.51318359375
 10
19.19189453125
 20
709.51318359375
 10
19.19189453125
 20
709.51318359375
 97
        0
 75
     0
 76
     1
 98
        0
  0
SPLINE
  5
66
330
1F
100
AcDbEntity
  8
Layer 1
370
     0
100
AcDbSpline
210
0.0
220
0.0
230
1.0
 70
    11
 71
     3
 72
    68
 73
    64
 74
     0
 42
0.0000000001
 43
0.0000000001
 40
0.0
 40
0.0
 40
0.0
 40
0.0
 40
1.0
 40
1.0
 40
1.0
 40
2.0
 40
2.0
 40
2.0
 40
3.0
 40
3.0
 40
3.0
 40
4.0
 40
4.0
 40
4.0
 40
5.0
 40
5.0
 40
5.0
 40
6.0
 40
6.0
 40
6.0
 40
7.0
 40
7.0
 40
7.0
 40
8.0
 40
8.0
 40
8.0
 40
9.0
 40
9.0
 40
9.0
 40
10.0
 40
10.0
 40
10.0
 40
11.0
 40
11.0
 40
11.0
 40
12.0
 40
12.0
 40
12.0
 40
13.0
 40
13.0
 40
13.0
 40
14.0
 40
14.0
 40
14.0
 40
15.0
 40
15.0
 40
15.0
 40
16.0
 40
16.0
 40
16.0
 40
17.0
 40
17.0
 40
17.0
 40
18.0
 40
18.0
 40
18.0
 40
19.0
 40
19.0
 40
19.0
 40
20.0
 40
20.0
 40
20.0
 40
21.0
 40
21.0
 40
21.0
 40
21.0
 10
519.69140625
 20
680.3955078125
 30
0.0
 10
519.69140625
 20
680.3955078125
 30
0.0
 10
519.7119140625
 20
680.41748046875
 30
0.0
 10
519.7119140625
 20
680.41748046875
 30
0.0
 10
519.7119140625
 20
680.41748046875
 30
0.0
 10
519.72265625
 20
680.44921875
 30
0.0
 10
519.72265625
 20
680.44921875
 30
0.0
 10
519.72265625
 20
680.44921875
 30
0.0
 10
519.744140625
 20
680.48046875
 30
0.0
 10
519.744140625
 20
680.48046875
 30
0.0
 10
519.744140625
 20
680.48046875
 30
0.0
 10
519.796875
 20
680.50146484375
 30
0.0
 10
519.796875
 20
680.50146484375
 30
0.0
 10
519.796875
 20
680.50146484375
 30
0.0
 10
520.8369140625
 20
680.4765625
 30
0.0
 10
520.8369140625
 20
680.4765625
 30
0.0
 10
520.8369140625
 20
680.4765625
 30
0.0
 10
521.068359375
 20
680.3955078125
 30
0.0
 10
521.068359375
 20
680.3955078125
 30
0.0
 10
521.068359375
 20
680.3955078125
 30
0.0
 10
521.375
 20
679.99462890625
 30
0.0
 10
521.375
 20
679.99462890625
 30
0.0
 10
521.375
 20
679.99462890625
 30
0.0
 10
521.4990234375
 20
679.3857421875
 30
0.0
 10
521.4990234375
 20
679.3857421875
 30
0.0
 10
521.4990234375
 20
679.3857421875
 30
0.0
 10
521.408203125
 20
678.7529296875
 30
0.0
 10
521.408203125
 20
678.7529296875
 30
0.0
 10
521.408203125
 20
678.7529296875
 30
0.0
 10
521.068359375
 20
678.2783203125
 30
0.0
 10
521.068359375
 20
678.2783203125
 30
0.0
 10
521.068359375
 20
678.2783203125
 30
0.0
 10
520.623046875
 20
678.140625
 30
0.0
 10
520.623046875
 20
678.140625
 30
0.0
 10
520.623046875
 20
678.140625
 30
0.0
 10
520.0546875
 20
678.1708984375
 30
0.0
 10
520.0546875
 20
678.1708984375
 30
0.0
 10
520.0546875
 20
678.1708984375
 30
0.0
 10
519.515625
 20
678.333984375
 30
0.0
 10
519.515625
 20
678.333984375
 30
0.0
 10
519.515625
 20
678.333984375
 30
0.0
 10
519.162109375
 20
678.595703125
 30
0.0
 10
519.162109375
 20
678.595703125
 30
0.0
 10
519.162109375
 20
678.595703125
 30
0.0
 10
519.060546875
 20
678.935546875
 30
0.0
 10
519.060546875
 20
678.935546875
 30
0.0
 10
519.060546875
 20
678.935546875
 30
0.0
 10
519.134765625
 20
679.876953125
 30
0.0
 10
519.134765625
 20
679.876953125
 30
0.0
 10
519.134765625
 20
679.876953125
 30
0.0
 10
519.267578125
 20
680.18408203125
 30
0.0
 10
519.267578125
 20
680.18408203125
 30
0.0
 10
519.267578125
 20
680.18408203125
 30
0.0
 10
519.3515625
 20
680.25634765625
 30
0.0
 10
519.3515625
 20
680.25634765625
 30
0.0
 10
519.3515625
 20
680.25634765625
 30
0.0
 10
519.69140625
 20
680.3955078125
 30
0.0
 10
519.69140625
 20
680.3955078125
 30
0.0
 10
519.69140625
 20
680.3955078125
 30
0.0
 10
519.69140625
 20
680.3955078125
 30
0.0
 10
519.69140625
 20
680.3955078125
 30
0.0
 10
519.69140625
 20
680.3955078125
 30
0.0
 10
519.69140625
 20
680.3955078125
 30
0.0
 10
519.69140625
 20
680.3955078125
 30
0.0
  0
HATCH
  5
67
330
1F
100
AcDbEntity
  8
Layer 1
 62
     7
420
 16777215
100
AcDbHatch
 10
0.0
 20
0.0
 30
0.0
210
0.0
220
0.0
230
1.0
  2
SOLID
 70
     1
 71
     0
 91
        1
 92
        1
 93
        1
 72
     4
 94
        3
 73
     0
 74
     1
 95
       68
 96
       64
 40
0.0
 40
0.0
 40
0.0
 40
0.0
 40
1.0
 40
1.0
 40
1.0
 40
2.0
 40
2.0
 40
2.0
 40
3.0
 40
3.0
 40
3.0
 40
4.0
 40
4.0
 40
4.0
 40
5.0
 40
5.0
 40
5.0
 40
6.0
 40
6.0
 40
6.0
 40
7.0
 40
7.0
 40
7.0
 40
8.0
 40
8.0
 40
8.0
 40
9.0
 40
9.0
 40
9.0
 40
10.0
 40
10.0
 40
10.0
 40
11.0
 40
11.0
 40
11.0
 40
12.0
 40
12.0
 40
12.0
 40
13.0
 40
13.0
 40
13.0
 40
14.0
 40
14.0
 40
14.0
 40
15.0
 40
15.0
 40
15.0
 40
16.0
 40
16.0
 40
16.0
 40
17.0
 40
17.0
 40
17.0
 40
18.0
 40
18.0
 40
18.0
 40
19.0
 40
19.0
 40
19.0
 40
20.0
 40
20.0
 40
20.0
 40
21.0
 40
21.0
 40
21.0
 40
21.0
 10
519.69140625
 20
680.3955078125
 10
519.69140625
 20
680.3955078125
 10
519.7119140625
 20
680.41748046875
 10
519.7119140625
 20
680.41748046875
 10
519.7119140625
 20
680.41748046875
 10
519.72265625
 20
680.44921875
 10
519.72265625
 20
680.44921875
 10
519.72265625
 20
680.44921875
 10
519.744140625
 20
680.48046875
 10
519.744140625
 20
680.48046875
 10
519.744140625
 20
680.48046875
 10
519.796875
 20
680.50146484375
 10
519.796875
 20
680.50146484375
 10
519.796875
 20
680.50146484375
 10
520.8369140625
 20
680.4765625
 10
520.8369140625
 20
680.4765625
 10
520.8369140625
 20
680.4765625
 10
521.068359375
 20
680.3955078125
 10
521.068359375
 20
680.3955078125
 10
521.068359375
 20
680.3955078125
 10
521.375
 20
679.99462890625
 10
521.375
 20
679.99462890625
 10
521.375
 20
679.99462890625
 10
521.4990234375
 20
679.3857421875
 10
521.4990234375
 20
679.3857421875
 10
521.4990234375
 20
679.3857421875
 10
521.408203125
 20
678.7529296875
 10
521.408203125
 20
678.7529296875
 10
521.408203125
 20
678.7529296875
 10
521.068359375
 20
678.2783203125
 10
521.068359375
 20
678.2783203125
 10
521.068359375
 20
678.2783203125
 10
520.623046875
 20
678.140625
 10
520.623046875
 20
678.140625
 10
520.623046875
 20
678.140625
 10
520.0546875
 20
678.1708984375
 10
520.0546875
 20
678.1708984375
 10
520.0546875
 20
678.1708984375
 10
519.515625
 20
678.333984375
 10
519.515625
 20
678.333984375
 10
519.515625
 20
678.333984375
 10
519.162109375
 20
678.595703125
 10
519.162109375
 20
678.595703125
 10
519.162109375
 20
678.595703125
 10
519.060546875
 20
678.935546875
 10
519.060546875
 20
678.935546875
 10
519.060546875
 20
678.935546875
 10
519.134765625
 20
679.876953125
 10
519.134765625
 20
679.876953125
 10
519.134765625
 20
679.876953125
 10
519.267578125
 20
680.18408203125
 10
519.267578125
 20
680.18408203125
 10
519.267578125
 20
680.18408203125
 10
519.3515625
 20
680.25634765625
 10
519.3515625
 20
680.25634765625
 10
519.3515625
 20
680.25634765625
 10
519.69140625
 20
680.3955078125
 10
519.69140625
 20
680.3955078125
 10
519.69140625
 20
680.3955078125
 10
519.69140625
 20
680.3955078125
 10
519.69140625
 20
680.3955078125
 10
519.69140625
 20
680.3955078125
 10
519.69140625
 20
680.3955078125
 10
519.69140625
 20
680.3955078125
 97
        0
 75
     0
 76
     1
 98
        0
  0
SPLINE
  5
68
330
1F
100
AcDbEntity
  8
Layer 1
370
     0
100
AcDbSpline
210
0.0
220
0.0
230
1.0
 70
    11
 71
     3
 72
    35
 73
    31
 74
     0
 42
0.0000000001
 43
0.0000000001
 40
0.0
 40
0.0
 40
0.0
 40
0.0
 40
1.0
 40
1.0
 40
1.0
 40
2.0
 40
2.0
 40
2.0
 40
3.0
 40
3.0
 40
3.0
 40
4.0
 40
4.0
 40
4.0
 40
5.0
 40
5.0
 40
5.0
 40
6.0
 40
6.0
 40
6.0
 40
7.0
 40
7.0
 40
7.0
 40
8.0
 40
8.0
 40
8.0
 40
9.0
 40
9.0
 40
9.0
 40
10.0
 40
10.0
 40
10.0
 40
10.0
 10
381.4111328125
 20
396.8466796875
 30
0.0
 10
381.4111328125
 20
396.8466796875
 30
0.0
 10
381.939453125
 20
397.0107421875
 30
0.0
 10
381.939453125
 20
397.0107421875
 30
0.0
 10
381.939453125
 20
397.0107421875
 30
0.0
 10
388.9287109375
 20
396.9521484375
 30
0.0
 10
388.9287109375
 20
396.9521484375
 30
0.0
 10
388.9287109375
 20
396.9521484375
 30
0.0
 10
389.001953125
 20
396.6806640625
 30
0.0
 10
389.001953125
 20
396.6806640625
 30
0.0
 10
389.001953125
 20
396.6806640625
 30
0.0
 10
388.9287109375
 20
384.140625
 30
0.0
 10
388.9287109375
 20
384.140625
 30
0.0
 10
388.9287109375
 20
384.140625
 30
0.0
 10
381.5830078125
 20
384.10791015625
 30
0.0
 10
381.5830078125
 20
384.10791015625
 30
0.0
 10
381.5830078125
 20
384.10791015625
 30
0.0
 10
381.4111328125
 20
384.140625
 30
0.0
 10
381.4111328125
 20
384.140625
 30
0.0
 10
381.4111328125
 20
384.140625
 30
0.0
 10
381.4072265625
 20
396.82763671875
 30
0.0
 10
381.4072265625
 20
396.82763671875
 30
0.0
 10
381.4072265625
 20
396.82763671875
 30
0.0
 10
381.4111328125
 20
396.8466796875
 30
0.0
 10
381.4111328125
 20
396.8466796875
 30
0.0
 10
381.4111328125
 20
396.8466796875
 30
0.0
 10
381.4111328125
 20
396.8466796875
 30
0.0
 10
381.4111328125
 20
396.8466796875
 30
0.0
 10
381.4111328125
 20
396.8466796875
 30
0.0
 10
381.4111328125
 20
396.8466796875
 30
0.0
 10
381.4111328125
 20
396.8466796875
 30
0.0
  0
HATCH
  5
69
330
1F
100
AcDbEntity
  8
Layer 1
 62
     7
420
 16777215
100
AcDbHatch
 10
0.0
 20
0.0
 30
0.0
210
0.0
220
0.0
230
1.0
  2
SOLID
 70
     1
 71
     0
 91
        1
 92
        1
 93
        1
 72
     4
 94
        3
 73
     0
 74
     1
 95
       35
 96
       31
 40
0.0
 40
0.0
 40
0.0
 40
0.0
 40
1.0
 40
1.0
 40
1.0
 40
2.0
 40
2.0
 40
2.0
 40
3.0
 40
3.0
 40
3.0
 40
4.0
 40
4.0
 40
4.0
 40
5.0
 40
5.0
 40
5.0
 40
6.0
 40
6.0
 40
6.0
 40
7.0
 40
7.0
 40
7.0
 40
8.0
 40
8.0
 40
8.0
 40
9.0
 40
9.0
 40
9.0
 40
10.0
 40
10.0
 40
10.0
 40
10.0
 10
381.4111328125
 20
396.8466796875
 10
381.4111328125
 20
396.8466796875
 10
381.939453125
 20
397.0107421875
 10
381.939453125
 20
397.0107421875
 10
381.939453125
 20
397.0107421875
 10
388.9287109375
 20
396.9521484375
 10
388.9287109375
 20
396.9521484375
 10
388.9287109375
 20
396.9521484375
 10
389.001953125
 20
396.6806640625
 10
389.001953125
 20
396.6806640625
 10
389.001953125
 20
396.6806640625
 10
388.9287109375
 20
384.140625
 10
388.9287109375
 20
384.140625
 10
388.9287109375
 20
384.140625
 10
381.5830078125
 20
384.10791015625
 10
381.5830078125
 20
384.10791015625
 10
381.5830078125
 20
384.10791015625
 10
381.4111328125
 20
384.140625
 10
381.4111328125
 20
384.140625
 10
381.4111328125
 20
384.140625
 10
381.4072265625
 20
396.82763671875
 10
381.4072265625
 20
396.82763671875
 10
381.4072265625
 20
396.82763671875
 10
381.4111328125
 20
396.8466796875
 10
381.4111328125
 20
396.8466796875
 10
381.4111328125
 20
396.8466796875
 10
381.4111328125
 20
396.8466796875
 10
381.4111328125
 20
396.8466796875
 10
381.4111328125
 20
396.8466796875
 10
381.4111328125
 20
396.8466796875
 10
381.4111328125
 20
396.8466796875
 97
        0
 75
     0
 76
     1
 98
        0
  0
SPLINE
  5
6A
330
1F
100
AcDbEntity
  8
Layer 1
370
     0
100
AcDbSpline
210
0.0
220
0.0
230
1.0
 70
    11
 71
     3
 72
    44
 73
    40
 74
     0
 42
0.0000000001
 43
0.0000000001
 40
0.0
 40
0.0
 40
0.0
 40
0.0
 40
1.0
 40
1.0
 40
1.0
 40
2.0
 40
2.0
 40
2.0
 40
3.0
 40
3.0
 40
3.0
 40
4.0
 40
4.0
 40
4.0
 40
5.0
 40
5.0
 40
5.0
 40
6.0
 40
6.0
 40
6.0
 40
7.0
 40
7.0
 40
7.0
 40
8.0
 40
8.0
 40
8.0
 40
9.0
 40
9.0
 40
9.0
 40
10.0
 40
10.0
 40
10.0
 40
11.0
 40
11.0
 40
11.0
 40
12.0
 40
12.0
 40
12.0
 40
13.0
 40
13.0
 40
13.0
 40
13.0
 10
575.384765625
 20
326.7529296875
 30
0.0
 10
575.384765625
 20
326.7529296875
 30
0.0
 10
575.4072265625
 20
326.7958984375
 30
0.0
 10
575.4072265625
 20
326.7958984375
 30
0.0
 10
575.4072265625
 20
326.7958984375
 30
0.0
 10
575.4130859375
 20
326.8271484375
 30
0.0
 10
575.4130859375
 20
326.8271484375
 30
0.0
 10
575.4130859375
 20
326.8271484375
 30
0.0
 10
575.431640625
 20
326.8486328125
 30
0.0
 10
575.431640625
 20
326.8486328125
 30
0.0
 10
575.431640625
 20
326.8486328125
 30
0.0
 10
581.419921875
 20
326.859375
 30
0.0
 10
581.419921875
 20
326.859375
 30
0.0
 10
581.419921875
 20
326.859375
 30
0.0
 10
581.4208984375
 20
319.0107421875
 30
0.0
 10
581.4208984375
 20
319.0107421875
 30
0.0
 10
581.4208984375
 20
319.0107421875
 30
0.0
 10
581.3876953125
 20
318.8828125
 30
0.0
 10
581.3876953125
 20
318.8828125
 30
0.0
 10
581.3876953125
 20
318.8828125
 30
0.0
 10
581.2646484375
 20
318.826171875
 30
0.0
 10
581.2646484375
 20
318.826171875
 30
0.0
 10
581.2646484375
 20
318.826171875
 30
0.0
 10
575.5771484375
 20
318.7763671875
 30
0.0
 10
575.5771484375
 20
318.7763671875
 30
0.0
 10
575.5771484375
 20
318.7763671875
 30
0.0
 10
575.384765625
 20
318.8125
 30
0.0
 10
575.384765625
 20
318.8125
 30
0.0
 10
575.384765625
 20
318.8125
 30
0.0
 10
575.380859375
 20
326.7333984375
 30
0.0
 10
575.380859375
 20
326.7333984375
 30
0.0
 10
575.380859375
 20
326.7333984375
 30
0.0
 10
575.384765625
 20
326.7529296875
 30
0.0
 10
575.384765625
 20
326.7529296875
 30
0.0
 10
575.384765625
 20
326.7529296875
 30
0.0
 10
575.384765625
 20
326.7529296875
 30
0.0
 10
575.384765625
 20
326.7529296875
 30
0.0
 10
575.384765625
 20
326.7529296875
 30
0.0
 10
575.384765625
 20
326.7529296875
 30
0.0
 10
575.384765625
 20
326.7529296875
 30
0.0
  0
HATCH
  5
6B
330
1F
100
AcDbEntity
  8
Layer 1
 62
     7
420
 16777215
100
AcDbHatch
 10
0.0
 20
0.0
 30
0.0
210
0.0
220
0.0
230
1.0
  2
SOLID
 70
     1
 71
     0
 91
        1
 92
        1
 93
        1
 72
     4
 94
        3
 73
     0
 74
     1
 95
       44
 96
       40
 40
0.0
 40
0.0
 40
0.0
 40
0.0
 40
1.0
 40
1.0
 40
1.0
 40
2.0
 40
2.0
 40
2.0
 40
3.0
 40
3.0
 40
3.0
 40
4.0
 40
4.0
 40
4.0
 40
5.0
 40
5.0
 40
5.0
 40
6.0
 40
6.0
 40
6.0
 40
7.0
 40
7.0
 40
7.0
 40
8.0
 40
8.0
 40
8.0
 40
9.0
 40
9.0
 40
9.0
 40
10.0
 40
10.0
 40
10.0
 40
11.0
 40
11.0
 40
11.0
 40
12.0
 40
12.0
 40
12.0
 40
13.0
 40
13.0
 40
13.0
 40
13.0
 10
575.384765625
 20
326.7529296875
 10
575.384765625
 20
326.7529296875
 10
575.4072265625
 20
326.7958984375
 10
575.4072265625
 20
326.7958984375
 10
575.4072265625
 20
326.7958984375
 10
575.4130859375
 20
326.8271484375
 10
575.4130859375
 20
326.8271484375
 10
575.4130859375
 20
326.8271484375
 10
575.431640625
 20
326.8486328125
 10
575.431640625
 20
326.8486328125
 10
575.431640625
 20
326.8486328125
 10
581.419921875
 20
326.859375
 10
581.419921875
 20
326.859375
 10
581.419921875
 20
326.859375
 10
581.4208984375
 20
319.0107421875
 10
581.4208984375
 20
319.0107421875
 10
581.4208984375
 20
319.0107421875
 10
581.3876953125
 20
318.8828125
 10
581.3876953125
 20
318.8828125
 10
581.3876953125
 20
318.8828125
 10
581.2646484375
 20
318.826171875
 10
581.2646484375
 20
318.826171875
 10
581.2646484375
 20
318.826171875
 10
575.5771484375
 20
318.7763671875
 10
575.5771484375
 20
318.7763671875
 10
575.5771484375
 20
318.7763671875
 10
575.384765625
 20
318.8125
 10
575.384765625
 20
318.8125
 10
575.384765625
 20
318.8125
 10
575.380859375
 20
326.7333984375
 10
575.380859375
 20
326.7333984375
 10
575.380859375
 20
326.7333984375
 10
575.384765625
 20
326.7529296875
 10
575.384765625
 20
326.7529296875
 10
575.384765625
 20
326.7529296875
 10
575.384765625
 20
326.7529296875
 10
575.384765625
 20
326.7529296875
 10
575.384765625
 20
326.7529296875
 10
575.384765625
 20
326.7529296875
 10
575.384765625
 20
326.7529296875
 97
        0
 75
     0
 76
     1
 98
        0
  0
SPLINE
  5
6C
330
1F
100
AcDbEntity
  8
Layer 1
370
     0
100
AcDbSpline
210
0.0
220
0.0
230
1.0
 70
    11
 71
     3
 72
   125
 73
   121
 74
     0
 42
0.0000000001
 43
0.0000000001
 40
0.0
 40
0.0
 40
0.0
 40
0.0
 40
1.0
 40
1.0
 40
1.0
 40
2.0
 40
2.0
 40
2.0
 40
3.0
 40
3.0
 40
3.0
 40
4.0
 40
4.0
 40
4.0
 40
5.0
 40
5.0
 40
5.0
 40
6.0
 40
6.0
 40
6.0
 40
7.0
 40
7.0
 40
7.0
 40
8.0
 40
8.0
 40
8.0
 40
9.0
 40
9.0
 40
9.0
 40
10.0
 40
10.0
 40
10.0
 40
11.0
 40
11.0
 40
11.0
 40
12.0
 40
12.0
 40
12.0
 40
13.0
 40
13.0
 40
13.0
 40
14.0
 40
14.0
 40
14.0
 40
15.0
 40
15.0
 40
15.0
 40
16.0
 40
16.0
 40
16.0
 40
17.0
 40
17.0
 40
17.0
 40
18.0
 40
18.0
 40
18.0
 40
19.0
 40
19.0
 40
19.0
 40
20.0
 40
20.0
 40
20.0
 40
21.0
 40
21.0
 40
21.0
 40
22.0
 40
22.0
 40
22.0
 40
23.0
 40
23.0
 40
23.0
 40
24.0
 40
24.0
 40
24.0
 40
25.0
 40
25.0
 40
25.0
 40
26.0
 40
26.0
 40
26.0
 40
27.0
 40
27.0
 40
27.0
 40
28.0
 40
28.0
 40
28.0
 40
29.0
 40
29.0
 40
29.0
 40
30.0
 40
30.0
 40
30.0
 40
31.0
 40
31.0
 40
31.0
 40
32.0
 40
32.0
 40
32.0
 40
33.0
 40
33.0
 40
33.0
 40
34.0
 40
34.0
 40
34.0
 40
35.0
 40
35.0
 40
35.0
 40
36.0
 40
36.0
 40
36.0
 40
37.0
 40
37.0
 40
37.0
 40
38.0
 40
38.0
 40
38.0
 40
39.0
 40
39.0
 40
39.0
 40
40.0
 40
40.0
 40
40.0
 40
40.0
 10
171.978515625
 20
267.9892578125
 30
0.0
 10
171.978515625
 20
267.9892578125
 30
0.0
 10
171.99365234375
 20
268.0078125
 30
0.0
 10
171.99365234375
 20
268.0078125
 30
0.0
 10
171.99365234375
 20
268.0078125
 30
0.0
 10
172.0078125
 20
268.0400390625
 30
0.0
 10
172.0078125
 20
268.0400390625
 30
0.0
 10
172.0078125
 20
268.0400390625
 30
0.0
 10
172.03369140625
 20
268.07421875
 30
0.0
 10
172.03369140625
 20
268.07421875
 30
0.0
 10
172.03369140625
 20
268.07421875
 30
0.0
 10
172.083984375
 20
268.095703125
 30
0.0
 10
172.083984375
 20
268.095703125
 30
0.0
 10
172.083984375
 20
268.095703125
 30
0.0
 10
172.74951171875
 20
268.1201171875
 30
0.0
 10
172.74951171875
 20
268.1201171875
 30
0.0
 10
172.74951171875
 20
268.1201171875
 30
0.0
 10
173.2490234375
 20
267.9892578125
 30
0.0
 10
173.2490234375
 20
267.9892578125
 30
0.0
 10
173.2490234375
 20
267.9892578125
 30
0.0
 10
173.2705078125
 20
267.962890625
 30
0.0
 10
173.2705078125
 20
267.962890625
 30
0.0
 10
173.2705078125
 20
267.962890625
 30
0.0
 10
173.27734375
 20
267.9296875
 30
0.0
 10
173.27734375
 20
267.9296875
 30
0.0
 10
173.27734375
 20
267.9296875
 30
0.0
 10
173.29638671875
 20
267.8994140625
 30
0.0
 10
173.29638671875
 20
267.8994140625
 30
0.0
 10
173.29638671875
 20
267.8994140625
 30
0.0
 10
173.3544921875
 20
267.8837890625
 30
0.0
 10
173.3544921875
 20
267.8837890625
 30
0.0
 10
173.3544921875
 20
267.8837890625
 30
0.0
 10
173.646484375
 20
267.703125
 30
0.0
 10
173.646484375
 20
267.703125
 30
0.0
 10
173.646484375
 20
267.703125
 30
0.0
 10
173.7783203125
 20
267.5654296875
 30
0.0
 10
173.7783203125
 20
267.5654296875
 30
0.0
 10
173.7783203125
 20
267.5654296875
 30
0.0
 10
173.78466796875
 20
267.5205078125
 30
0.0
 10
173.78466796875
 20
267.5205078125
 30
0.0
 10
173.78466796875
 20
267.5205078125
 30
0.0
 10
173.767578125
 20
267.3935546875
 30
0.0
 10
173.767578125
 20
267.3935546875
 30
0.0
 10
173.767578125
 20
267.3935546875
 30
0.0
 10
173.7783203125
 20
267.3544921875
 30
0.0
 10
173.7783203125
 20
267.3544921875
 30
0.0
 10
173.7783203125
 20
267.3544921875
 30
0.0
 10
173.990234375
 20
267.142578125
 30
0.0
 10
173.990234375
 20
267.142578125
 30
0.0
 10
173.990234375
 20
267.142578125
 30
0.0
 10
173.962890625
 20
266.142578125
 30
0.0
 10
173.962890625
 20
266.142578125
 30
0.0
 10
173.962890625
 20
266.142578125
 30
0.0
 10
173.44970703125
 20
265.4296875
 30
0.0
 10
173.44970703125
 20
265.4296875
 30
0.0
 10
173.44970703125
 20
265.4296875
 30
0.0
 10
172.650390625
 20
265.0966796875
 30
0.0
 10
172.650390625
 20
265.0966796875
 30
0.0
 10
172.650390625
 20
265.0966796875
 30
0.0
 10
171.7666015625
 20
265.236328125
 30
0.0
 10
171.7666015625
 20
265.236328125
 30
0.0
 10
171.7666015625
 20
265.236328125
 30
0.0
 10
171.74462890625
 20
265.26171875
 30
0.0
 10
171.74462890625
 20
265.26171875
 30
0.0
 10
171.74462890625
 20
265.26171875
 30
0.0
 10
171.73779296875
 20
265.2958984375
 30
0.0
 10
171.73779296875
 20
265.2958984375
 30
0.0
 10
171.73779296875
 20
265.2958984375
 30
0.0
 10
171.71875
 20
265.326171875
 30
0.0
 10
171.71875
 20
265.326171875
 30
0.0
 10
171.71875
 20
265.326171875
 30
0.0
 10
171.66064453125
 20
265.341796875
 30
0.0
 10
171.66064453125
 20
265.341796875
 30
0.0
 10
171.66064453125
 20
265.341796875
 30
0.0
 10
171.2373046875
 20
265.66015625
 30
0.0
 10
171.2373046875
 20
265.66015625
 30
0.0
 10
171.2373046875
 20
265.66015625
 30
0.0
 10
171.23046875
 20
265.705078125
 30
0.0
 10
171.23046875
 20
265.705078125
 30
0.0
 10
171.23046875
 20
265.705078125
 30
0.0
 10
171.248046875
 20
265.83203125
 30
0.0
 10
171.248046875
 20
265.83203125
 30
0.0
 10
171.248046875
 20
265.83203125
 30
0.0
 10
171.2373046875
 20
265.8720703125
 30
0.0
 10
171.2373046875
 20
265.8720703125
 30
0.0
 10
171.2373046875
 20
265.8720703125
 30
0.0
 10
171.10546875
 20
266.1005859375
 30
0.0
 10
171.10546875
 20
266.1005859375
 30
0.0
 10
171.10546875
 20
266.1005859375
 30
0.0
 10
171.0234375
 20
266.486328125
 30
0.0
 10
171.0234375
 20
266.486328125
 30
0.0
 10
171.0234375
 20
266.486328125
 30
0.0
 10
171.021484375
 20
266.935546875
 30
0.0
 10
171.021484375
 20
266.935546875
 30
0.0
 10
171.021484375
 20
266.935546875
 30
0.0
 10
171.13134765625
 20
267.3544921875
 30
0.0
 10
171.13134765625
 20
267.3544921875
 30
0.0
 10
171.13134765625
 20
267.3544921875
 30
0.0
 10
171.1572265625
 20
267.3759765625
 30
0.0
 10
171.1572265625
 20
267.3759765625
 30
0.0
 10
171.1572265625
 20
267.3759765625
 30
0.0
 10
171.19091796875
 20
267.3828125
 30
0.0
 10
171.19091796875
 20
267.3828125
 30
0.0
 10
171.19091796875
 20
267.3828125
 30
0.0
 10
171.2216796875
 20
267.40234375
 30
0.0
 10
171.2216796875
 20
267.40234375
 30
0.0
 10
171.2216796875
 20
267.40234375
 30
0.0
 10
171.31201171875
 20
267.6220703125
 30
0.0
 10
171.31201171875
 20
267.6220703125
 30
0.0
 10
171.31201171875
 20
267.6220703125
 30
0.0
 10
171.48974609375
 20
267.76953125
 30
0.0
 10
171.48974609375
 20
267.76953125
 30
0.0
 10
171.48974609375
 20
267.76953125
 30
0.0
 10
171.978515625
 20
267.9892578125
 30
0.0
 10
171.978515625
 20
267.9892578125
 30
0.0
 10
171.978515625
 20
267.9892578125
 30
0.0
 10
171.978515625
 20
267.9892578125
 30
0.0
 10
171.978515625
 20
267.9892578125
 30
0.0
 10
171.978515625
 20
267.9892578125
 30
0.0
 10
171.978515625
 20
267.9892578125
 30
0.0
 10
171.978515625
 20
267.9892578125
 30
0.0
  0
HATCH
  5
6D
330
1F
100
AcDbEntity
  8
Layer 1
 62
     7
420
 16777215
100
AcDbHatch
 10
0.0
 20
0.0
 30
0.0
210
0.0
220
0.0
230
1.0
  2
SOLID
 70
     1
 71
     0
 91
        1
 92
        1
 93
        1
 72
     4
 94
        3
 73
     0
 74
     1
 95
      125
 96
      121
 40
0.0
 40
0.0
 40
0.0
 40
0.0
 40
1.0
 40
1.0
 40
1.0
 40
2.0
 40
2.0
 40
2.0
 40
3.0
 40
3.0
 40
3.0
 40
4.0
 40
4.0
 40
4.0
 40
5.0
 40
5.0
 40
5.0
 40
6.0
 40
6.0
 40
6.0
 40
7.0
 40
7.0
 40
7.0
 40
8.0
 40
8.0
 40
8.0
 40
9.0
 40
9.0
 40
9.0
 40
10.0
 40
10.0
 40
10.0
 40
11.0
 40
11.0
 40
11.0
 40
12.0
 40
12.0
 40
12.0
 40
13.0
 40
13.0
 40
13.0
 40
14.0
 40
14.0
 40
14.0
 40
15.0
 40
15.0
 40
15.0
 40
16.0
 40
16.0
 40
16.0
 40
17.0
 40
17.0
 40
17.0
 40
18.0
 40
18.0
 40
18.0
 40
19.0
 40
19.0
 40
19.0
 40
20.0
 40
20.0
 40
20.0
 40
21.0
 40
21.0
 40
21.0
 40
22.0
 40
22.0
 40
22.0
 40
23.0
 40
23.0
 40
23.0
 40
24.0
 40
24.0
 40
24.0
 40
25.0
 40
25.0
 40
25.0
 40
26.0
 40
26.0
 40
26.0
 40
27.0
 40
27.0
 40
27.0
 40
28.0
 40
28.0
 40
28.0
 40
29.0
 40
29.0
 40
29.0
 40
30.0
 40
30.0
 40
30.0
 40
31.0
 40
31.0
 40
31.0
 40
32.0
 40
32.0
 40
32.0
 40
33.0
 40
33.0
 40
33.0
 40
34.0
 40
34.0
 40
34.0
 40
35.0
 40
35.0
 40
35.0
 40
36.0
 40
36.0
 40
36.0
 40
37.0
 40
37.0
 40
37.0
 40
38.0
 40
38.0
 40
38.0
 40
39.0
 40
39.0
 40
39.0
 40
40.0
 40
40.0
 40
40.0
 40
40.0
 10
171.978515625
 20
267.9892578125
 10
171.978515625
 20
267.9892578125
 10
171.99365234375
 20
268.0078125
 10
171.99365234375
 20
268.0078125
 10
171.99365234375
 20
268.0078125
 10
172.0078125
 20
268.0400390625
 10
172.0078125
 20
268.0400390625
 10
172.0078125
 20
268.0400390625
 10
172.03369140625
 20
268.07421875
 10
172.03369140625
 20
268.07421875
 10
172.03369140625
 20
268.07421875
 10
172.083984375
 20
268.095703125
 10
172.083984375
 20
268.095703125
 10
172.083984375
 20
268.095703125
 10
172.74951171875
 20
268.1201171875
 10
172.74951171875
 20
268.1201171875
 10
172.74951171875
 20
268.1201171875
 10
173.2490234375
 20
267.9892578125
 10
173.2490234375
 20
267.9892578125
 10
173.2490234375
 20
267.9892578125
 10
173.2705078125
 20
267.962890625
 10
173.2705078125
 20
267.962890625
 10
173.2705078125
 20
267.962890625
 10
173.27734375
 20
267.9296875
 10
173.27734375
 20
267.9296875
 10
173.27734375
 20
267.9296875
 10
173.29638671875
 20
267.8994140625
 10
173.29638671875
 20
267.8994140625
 10
173.29638671875
 20
267.8994140625
 10
173.3544921875
 20
267.8837890625
 10
173.3544921875
 20
267.8837890625
 10
173.3544921875
 20
267.8837890625
 10
173.646484375
 20
267.703125
 10
173.646484375
 20
267.703125
 10
173.646484375
 20
267.703125
 10
173.7783203125
 20
267.5654296875
 10
173.7783203125
 20
267.5654296875
 10
173.7783203125
 20
267.5654296875
 10
173.78466796875
 20
267.5205078125
 10
173.78466796875
 20
267.5205078125
 10
173.78466796875
 20
267.5205078125
 10
173.767578125
 20
267.3935546875
 10
173.767578125
 20
267.3935546875
 10
173.767578125
 20
267.3935546875
 10
173.7783203125
 20
267.3544921875
 10
173.7783203125
 20
267.3544921875
 10
173.7783203125
 20
267.3544921875
 10
173.990234375
 20
267.142578125
 10
173.990234375
 20
267.142578125
 10
173.990234375
 20
267.142578125
 10
173.962890625
 20
266.142578125
 10
173.962890625
 20
266.142578125
 10
173.962890625
 20
266.142578125
 10
173.44970703125
 20
265.4296875
 10
173.44970703125
 20
265.4296875
 10
173.44970703125
 20
265.4296875
 10
172.650390625
 20
265.0966796875
 10
172.650390625
 20
265.0966796875
 10
172.650390625
 20
265.0966796875
 10
171.7666015625
 20
265.236328125
 10
171.7666015625
 20
265.236328125
 10
171.7666015625
 20
265.236328125
 10
171.74462890625
 20
265.26171875
 10
171.74462890625
 20
265.26171875
 10
171.74462890625
 20
265.26171875
 10
171.73779296875
 20
265.2958984375
 10
171.73779296875
 20
265.2958984375
 10
171.73779296875
 20
265.2958984375
 10
171.71875
 20
265.326171875
 10
171.71875
 20
265.326171875
 10
171.71875
 20
265.326171875
 10
171.66064453125
 20
265.341796875
 10
171.66064453125
 20
265.341796875
 10
171.66064453125
 20
265.341796875
 10
171.2373046875
 20
265.66015625
 10
171.2373046875
 20
265.66015625
 10
171.2373046875
 20
265.66015625
 10
171.23046875
 20
265.705078125
 10
171.23046875
 20
265.705078125
 10
171.23046875
 20
265.705078125
 10
171.248046875
 20
265.83203125
 10
171.248046875
 20
265.83203125
 10
171.248046875
 20
265.83203125
 10
171.2373046875
 20
265.8720703125
 10
171.2373046875
 20
265.8720703125
 10
171.2373046875
 20
265.8720703125
 10
171.10546875
 20
266.1005859375
 10
171.10546875
 20
266.1005859375
 10
171.10546875
 20
266.1005859375
 10
171.0234375
 20
266.486328125
 10
171.0234375
 20
266.486328125
 10
171.0234375
 20
266.486328125
 10
171.021484375
 20
266.935546875
 10
171.021484375
 20
266.935546875
 10
171.021484375
 20
266.935546875
 10
171.13134765625
 20
267.3544921875
 10
171.13134765625
 20
267.3544921875
 10
171.13134765625
 20
267.3544921875
 10
171.1572265625
 20
267.3759765625
 10
171.1572265625
 20
267.3759765625
 10
171.1572265625
 20
267.3759765625
 10
171.19091796875
 20
267.3828125
 10
171.19091796875
 20
267.3828125
 10
171.19091796875
 20
267.3828125
 10
171.2216796875
 20
267.40234375
 10
171.2216796875
 20
267.40234375
 10
171.2216796875
 20
267.40234375
 10
171.31201171875
 20
267.6220703125
 10
171.31201171875
 20
267.6220703125
 10
171.31201171875
 20
267.6220703125
 10
171.48974609375
 20
267.76953125
 10
171.48974609375
 20
267.76953125
 10
171.48974609375
 20
267.76953125
 10
171.978515625
 20
267.9892578125
 10
171.978515625
 20
267.9892578125
 10
171.978515625
 20
267.9892578125
 10
171.978515625
 20
267.9892578125
 10
171.978515625
 20
267.9892578125
 10
171.978515625
 20
267.9892578125
 10
171.978515625
 20
267.9892578125
 10
171.978515625
 20
267.9892578125
 97
        0
 75
     0
 76
     1
 98
        0
  0
SPLINE
  5
6E
330
1F
100
AcDbEntity
  8
Layer 1
370
     0
100
AcDbSpline
210
0.0
220
0.0
230
1.0
 70
    11
 71
     3
 72
    56
 73
    52
 74
     0
 42
0.0000000001
 43
0.0000000001
 40
0.0
 40
0.0
 40
0.0
 40
0.0
 40
1.0
 40
1.0
 40
1.0
 40
2.0
 40
2.0
 40
2.0
 40
3.0
 40
3.0
 40
3.0
 40
4.0
 40
4.0
 40
4.0
 40
5.0
 40
5.0
 40
5.0
 40
6.0
 40
6.0
 40
6.0
 40
7.0
 40
7.0
 40
7.0
 40
8.0
 40
8.0
 40
8.0
 40
9.0
 40
9.0
 40
9.0
 40
10.0
 40
10.0
 40
10.0
 40
11.0
 40
11.0
 40
11.0
 40
12.0
 40
12.0
 40
12.0
 40
13.0
 40
13.0
 40
13.0
 40
14.0
 40
14.0
 40
14.0
 40
15.0
 40
15.0
 40
15.0
 40
16.0
 40
16.0
 40
16.0
 40
17.0
 40
17.0
 40
17.0
 40
17.0
 10
438.48046875
 20
-10.16015625
 30
0.0
 10
438.48046875
 20
-10.16015625
 30
0.0
 10
439.7509765625
 20
-11.0068359375
 30
0.0
 10
439.7509765625
 20
-11.0068359375
 30
0.0
 10
439.7509765625
 20
-11.0068359375
 30
0.0
 10
440.19140625
 20
-11.4482421875
 30
0.0
 10
440.19140625
 20
-11.4482421875
 30
0.0
 10
440.19140625
 20
-11.4482421875
 30
0.0
 10
440.15234375
 20
-11.673828125
 30
0.0
 10
440.15234375
 20
-11.673828125
 30
0.0
 10
440.15234375
 20
-11.673828125
 30
0.0
 10
434.833984375
 20
-18.6943359375
 30
0.0
 10
434.833984375
 20
-18.6943359375
 30
0.0
 10
434.833984375
 20
-18.6943359375
 30
0.0
 10
434.7255859375
 20
-18.69921875
 30
0.0
 10
434.7255859375
 20
-18.69921875
 30
0.0
 10
434.7255859375
 20
-18.69921875
 30
0.0
 10
434.345703125
 20
-18.47265625
 30
0.0
 10
434.345703125
 20
-18.47265625
 30
0.0
 10
434.345703125
 20
-18.47265625
 30
0.0
 10
433.4384765625
 20
-17.7939453125
 30
0.0
 10
433.4384765625
 20
-17.7939453125
 30
0.0
 10
433.4384765625
 20
-17.7939453125
 30
0.0
 10
428.951171875
 20
-14.3955078125
 30
0.0
 10
428.951171875
 20
-14.3955078125
 30
0.0
 10
428.951171875
 20
-14.3955078125
 30
0.0
 10
428.46875
 20
-14.03515625
 30
0.0
 10
428.46875
 20
-14.03515625
 30
0.0
 10
428.46875
 20
-14.03515625
 30
0.0
 10
428.421875
 20
-13.9716796875
 30
0.0
 10
428.421875
 20
-13.9716796875
 30
0.0
 10
428.421875
 20
-13.9716796875
 30
0.0
 10
428.951171875
 20
-13.23046875
 30
0.0
 10
428.951171875
 20
-13.23046875
 30
0.0
 10
428.951171875
 20
-13.23046875
 30
0.0
 10
431.4921875
 20
-9.736328125
 30
0.0
 10
431.4921875
 20
-9.736328125
 30
0.0
 10
431.4921875
 20
-9.736328125
 30
0.0
 10
433.4560546875
 20
-7.16796875
 30
0.0
 10
433.4560546875
 20
-7.16796875
 30
0.0
 10
433.4560546875
 20
-7.16796875
 30
0.0
 10
433.6103515625
 20
-7.08984375
 30
0.0
 10
433.6103515625
 20
-7.08984375
 30
0.0
 10
433.6103515625
 20
-7.08984375
 30
0.0
 10
433.6103515625
 20
-7.08984375
 30
0.0
 10
433.6103515625
 20
-7.08984375
 30
0.0
 10
433.6103515625
 20
-7.08984375
 30
0.0
 10
433.6103515625
 20
-7.08984375
 30
0.0
 10
433.6103515625
 20
-7.08984375
 30
0.0
 10
433.6103515625
 20
-7.08984375
 30
0.0
 10
438.48046875
 20
-10.16015625
 30
0.0
 10
438.48046875
 20
-10.16015625
 30
0.0
  0
HATCH
  5
6F
330
1F
100
AcDbEntity
  8
Layer 1
 62
     7
420
 16777215
100
AcDbHatch
 10
0.0
 20
0.0
 30
0.0
210
0.0
220
0.0
230
1.0
  2
SOLID
 70
     1
 71
     0
 91
        1
 92
        1
 93
        1
 72
     4
 94
        3
 73
     0
 74
     1
 95
       56
 96
       52
 40
0.0
 40
0.0
 40
0.0
 40
0.0
 40
1.0
 40
1.0
 40
1.0
 40
2.0
 40
2.0
 40
2.0
 40
3.0
 40
3.0
 40
3.0
 40
4.0
 40
4.0
 40
4.0
 40
5.0
 40
5.0
 40
5.0
 40
6.0
 40
6.0
 40
6.0
 40
7.0
 40
7.0
 40
7.0
 40
8.0
 40
8.0
 40
8.0
 40
9.0
 40
9.0
 40
9.0
 40
10.0
 40
10.0
 40
10.0
 40
11.0
 40
11.0
 40
11.0
 40
12.0
 40
12.0
 40
12.0
 40
13.0
 40
13.0
 40
13.0
 40
14.0
 40
14.0
 40
14.0
 40
15.0
 40
15.0
 40
15.0
 40
16.0
 40
16.0
 40
16.0
 40
17.0
 40
17.0
 40
17.0
 40
17.0
 10
438.48046875
 20
-10.16015625
 10
438.48046875
 20
-10.16015625
 10
439.7509765625
 20
-11.0068359375
 10
439.7509765625
 20
-11.0068359375
 10
439.7509765625
 20
-11.0068359375
 10
440.19140625
 20
-11.4482421875
 10
440.19140625
 20
-11.4482421875
 10
440.19140625
 20
-11.4482421875
 10
440.15234375
 20
-11.673828125
 10
440.15234375
 20
-11.673828125
 10
440.15234375
 20
-11.673828125
 10
434.833984375
 20
-18.6943359375
 10
434.833984375
 20
-18.6943359375
 10
434.833984375
 20
-18.6943359375
 10
434.7255859375
 20
-18.69921875
 10
434.7255859375
 20
-18.69921875
 10
434.7255859375
 20
-18.69921875
 10
434.345703125
 20
-18.47265625
 10
434.345703125
 20
-18.47265625
 10
434.345703125
 20
-18.47265625
 10
433.4384765625
 20
-17.7939453125
 10
433.4384765625
 20
-17.7939453125
 10
433.4384765625
 20
-17.7939453125
 10
428.951171875
 20
-14.3955078125
 10
428.951171875
 20
-14.3955078125
 10
428.951171875
 20
-14.3955078125
 10
428.46875
 20
-14.03515625
 10
428.46875
 20
-14.03515625
 10
428.46875
 20
-14.03515625
 10
428.421875
 20
-13.9716796875
 10
428.421875
 20
-13.9716796875
 10
428.421875
 20
-13.9716796875
 10
428.951171875
 20
-13.23046875
 10
428.951171875
 20
-13.23046875
 10
428.951171875
 20
-13.23046875
 10
431.4921875
 20
-9.736328125
 10
431.4921875
 20
-9.736328125
 10
431.4921875
 20
-9.736328125
 10
433.4560546875
 20
-7.16796875
 10
433.4560546875
 20
-7.16796875
 10
433.4560546875
 20
-7.16796875
 10
433.6103515625
 20
-7.08984375
 10
433.6103515625
 20
-7.08984375
 10
433.6103515625
 20
-7.08984375
 10
433.6103515625
 20
-7.08984375
 10
433.6103515625
 20
-7.08984375
 10
433.6103515625
 20
-7.08984375
 10
433.6103515625
 20
-7.08984375
 10
433.6103515625
 20
-7.08984375
 10
433.6103515625
 20
-7.08984375
 10
438.48046875
 20
-10.16015625
 10
438.48046875
 20
-10.16015625
 97
        0
 75
     0
 76
     1
 98
        0
  0
SPLINE
  5
70
330
1F
100
AcDbEntity
  8
Layer 1
370
     0
100
AcDbSpline
210
0.0
220
0.0
230
1.0
 70
    11
 71
     3
 72
    50
 73
    46
 74
     0
 42
0.0000000001
 43
0.0000000001
 40
0.0
 40
0.0
 40
0.0
 40
0.0
 40
1.0
 40
1.0
 40
1.0
 40
2.0
 40
2.0
 40
2.0
 40
3.0
 40
3.0
 40
3.0
 40
4.0
 40
4.0
 40
4.0
 40
5.0
 40
5.0
 40
5.0
 40
6.0
 40
6.0
 40
6.0
 40
7.0
 40
7.0
 40
7.0
 40
8.0
 40
8.0
 40
8.0
 40
9.0
 40
9.0
 40
9.0
 40
10.0
 40
10.0
 40
10.0
 40
11.0
 40
11.0
 40
11.0
 40
12.0
 40
12.0
 40
12.0
 40
13.0
 40
13.0
 40
13.0
 40
14.0
 40
14.0
 40
14.0
 40
15.0
 40
15.0
 40
15.0
 40
15.0
 10
-97.17138671875
 20
-374.28515625
 30
0.0
 10
-97.17138671875
 20
-374.28515625
 30
0.0
 10
-97.06884765625
 20
-374.208984375
 30
0.0
 10
-97.06884765625
 20
-374.208984375
 30
0.0
 10
-97.06884765625
 20
-374.208984375
 30
0.0
 10
-97.0029296875
 20
-374.197265625
 30
0.0
 10
-97.0029296875
 20
-374.197265625
 30
0.0
 10
-97.0029296875
 20
-374.197265625
 30
0.0
 10
-96.95947265625
 20
-374.28515625
 30
0.0
 10
-96.95947265625
 20
-374.28515625
 30
0.0
 10
-96.95947265625
 20
-374.28515625
 30
0.0
 10
-96.21826171875
 20
-380.3203125
 30
0.0
 10
-96.21826171875
 20
-380.3203125
 30
0.0
 10
-96.21826171875
 20
-380.3203125
 30
0.0
 10
-99.0771484375
 20
-380.955078125
 30
0.0
 10
-99.0771484375
 20
-380.955078125
 30
0.0
 10
-99.0771484375
 20
-380.955078125
 30
0.0
 10
-99.39453125
 20
-380.955078125
 30
0.0
 10
-99.39453125
 20
-380.955078125
 30
0.0
 10
-99.39453125
 20
-380.955078125
 30
0.0
 10
-99.84619140625
 20
-381.11328125
 30
0.0
 10
-99.84619140625
 20
-381.11328125
 30
0.0
 10
-99.84619140625
 20
-381.11328125
 30
0.0
 10
-99.92431640625
 20
-381.1669921875
 30
0.0
 10
-99.92431640625
 20
-381.1669921875
 30
0.0
 10
-99.92431640625
 20
-381.1669921875
 30
0.0
 10
-100.11279296875
 20
-380.7353515625
 30
0.0
 10
-100.11279296875
 20
-380.7353515625
 30
0.0
 10
-100.11279296875
 20
-380.7353515625
 30
0.0
 10
-101.01611328125
 20
-375.19921875
 30
0.0
 10
-101.01611328125
 20
-375.19921875
 30
0.0
 10
-101.01611328125
 20
-375.19921875
 30
0.0
 10
-100.98291015625
 20
-375.025390625
 30
0.0
 10
-100.98291015625
 20
-375.025390625
 30
0.0
 10
-100.98291015625
 20
-375.025390625
 30
0.0
 10
-97.21533203125
 20
-374.2763671875
 30
0.0
 10
-97.21533203125
 20
-374.2763671875
 30
0.0
 10
-97.21533203125
 20
-374.2763671875
 30
0.0
 10
-97.17138671875
 20
-374.28515625
 30
0.0
 10
-97.17138671875
 20
-374.28515625
 30
0.0
 10
-97.17138671875
 20
-374.28515625
 30
0.0
 10
-97.17138671875
 20
-374.28515625
 30
0.0
 10
-97.17138671875
 20
-374.28515625
 30
0.0
 10
-97.17138671875
 20
-374.28515625
 30
0.0
 10
-97.17138671875
 20
-374.28515625
 30
0.0
 10
-97.17138671875
 20
-374.28515625
 30
0.0
  0
HATCH
  5
71
330
1F
100
AcDbEntity
  8
Layer 1
 62
     7
420
 16777215
100
AcDbHatch
 10
0.0
 20
0.0
 30
0.0
210
0.0
220
0.0
230
1.0
  2
SOLID
 70
     1
 71
     0
 91
        1
 92
        1
 93
        1
 72
     4
 94
        3
 73
     0
 74
     1
 95
       50
 96
       46
 40
0.0
 40
0.0
 40
0.0
 40
0.0
 40
1.0
 40
1.0
 40
1.0
 40
2.0
 40
2.0
 40
2.0
 40
3.0
 40
3.0
 40
3.0
 40
4.0
 40
4.0
 40
4.0
 40
5.0
 40
5.0
 40
5.0
 40
6.0
 40
6.0
 40
6.0
 40
7.0
 40
7.0
 40
7.0
 40
8.0
 40
8.0
 40
8.0
 40
9.0
 40
9.0
 40
9.0
 40
10.0
 40
10.0
 40
10.0
 40
11.0
 40
11.0
 40
11.0
 40
12.0
 40
12.0
 40
12.0
 40
13.0
 40
13.0
 40
13.0
 40
14.0
 40
14.0
 40
14.0
 40
15.0
 40
15.0
 40
15.0
 40
15.0
 10
-97.17138671875
 20
-374.28515625
 10
-97.17138671875
 20
-374.28515625
 10
-97.06884765625
 20
-374.208984375
 10
-97.06884765625
 20
-374.208984375
 10
-97.06884765625
 20
-374.208984375
 10
-97.0029296875
 20
-374.197265625
 10
-97.0029296875
 20
-374.197265625
 10
-97.0029296875
 20
-374.197265625
 10
-96.95947265625
 20
-374.28515625
 10
-96.95947265625
 20
-374.28515625
 10
-96.95947265625
 20
-374.28515625
 10
-96.21826171875
 20
-380.3203125
 10
-96.21826171875
 20
-380.3203125
 10
-96.21826171875
 20
-380.3203125
 10
-99.0771484375
 20
-380.955078125
 10
-99.0771484375
 20
-380.955078125
 10
-99.0771484375
 20
-380.955078125
 10
-99.39453125
 20
-380.955078125
 10
-99.39453125
 20
-380.955078125
 10
-99.39453125
 20
-380.955078125
 10
-99.84619140625
 20
-381.11328125
 10
-99.84619140625
 20
-381.11328125
 10
-99.84619140625
 20
-381.11328125
 10
-99.92431640625
 20
-381.1669921875
 10
-99.92431640625
 20
-381.1669921875
 10
-99.92431640625
 20
-381.1669921875
 10
-100.11279296875
 20
-380.7353515625
 10
-100.11279296875
 20
-380.7353515625
 10
-100.11279296875
 20
-380.7353515625
 10
-101.01611328125
 20
-375.19921875
 10
-101.01611328125
 20
-375.19921875
 10
-101.01611328125
 20
-375.19921875
 10
-100.98291015625
 20
-375.025390625
 10
-100.98291015625
 20
-375.025390625
 10
-100.98291015625
 20
-375.025390625
 10
-97.21533203125
 20
-374.2763671875
 10
-97.21533203125
 20
-374.2763671875
 10
-97.21533203125
 20
-374.2763671875
 10
-97.17138671875
 20
-374.28515625
 10
-97.17138671875
 20
-374.28515625
 10
-97.17138671875
 20
-374.28515625
 10
-97.17138671875
 20
-374.28515625
 10
-97.17138671875
 20
-374.28515625
 10
-97.17138671875
 20
-374.28515625
 10
-97.17138671875
 20
-374.28515625
 10
-97.17138671875
 20
-374.28515625
 97
        0
 75
     0
 76
     1
 98
        0
  0
ENDSEC
  0
SECTION
  2
OBJECTS
  0
DICTIONARY
  5
C
330
0
100
AcDbDictionary
281
     1
  3
ACAD_GROUP
350
D
  3
ACAD_LAYOUT
350
1A
  3
ACAD_MLINESTYLE
350
17
  3
ACAD_PLOTSETTINGS
350
19
  3
ACAD_PLOTSTYLENAME
350
E
  3
ACAD_TABLESTYLE
350
72
  3
ACAD_VISUALSTYLE
350
2A
  0
DICTIONARY
  5
D
102
{ACAD_REACTORS
330
C
102
}
330
C
100
AcDbDictionary
281
     1
  0
DICTIONARY
  5
1A
102
{ACAD_REACTORS
330
C
102
}
330
C
100
AcDbDictionary
281
     1
  3
Layout1
350
1E
  3
Layout2
350
26
  3
Model
350
22
  0
DICTIONARY
  5
17
102
{ACAD_REACTORS
330
C
102
}
330
C
100
AcDbDictionary
281
     1
  3
Standard
350
18
  0
DICTIONARY
  5
19
102
{ACAD_REACTORS
330
C
102
}
330
C
100
AcDbDictionary
281
     1
  0
ACDBDICTIONARYWDFLT
  5
E
102
{ACAD_REACTORS
330
C
102
}
330
C
100
AcDbDictionary
281
     1
  3
Normal
350
F
100
AcDbDictionaryWithDefault
340
F
  0
DICTIONARY
  5
72
102
{ACAD_REACTORS
330
C
102
}
330
C
100
AcDbDictionary
281
     1
  0
DICTIONARY
  5
2A
102
{ACAD_REACTORS
330
C
102
}
330
C
100
AcDbDictionary
281
     1
  3
2dWireframe
350
2F
  3
3D Hidden
350
31
  3
3dWireframe
350
30
  3
Basic
350
32
  3
Brighten
350
36
  3
ColorChange
350
3A
  3
Conceptual
350
34
  3
Dim
350
35
  3
Facepattern
350
39
  3
Flat
350
2B
  3
FlatWithEdges
350
2C
  3
Gouraud
350
2D
  3
GouraudWithEdges
350
2E
  3
Linepattern
350
38
  3
Realistic
350
33
  3
Thicken
350
37
  0
LAYOUT
  5
1E
102
{ACAD_REACTORS
330
1A
102
}
330
1A
100
AcDbPlotSettings
  1

  2
none_device
  4

  6

 40
0.0
 41
0.0
 42
0.0
 43
0.0
 44
0.0
 45
0.0
 46
0.0
 47
0.0
 48
0.0
 49
0.0
140
0.0
141
0.0
142
1.0
143
1.0
 70
   688
 72
     0
 73
     0
 74
     5
  7

 75
    16
 76
     0
 77
     2
 78
   300
147
1.0
148
0.0
149
0.0
100
AcDbLayout
  1
Layout1
 70
     1
 71
     1
 10
0.0
 20
0.0
 11
12.0
 21
9.0
 12
0.0
 22
0.0
 32
0.0
 14
1.000000000000000E+20
 24
1.000000000000000E+20
 34
1.000000000000000E+20
 15
-1.000000000000000E+20
 25
-1.000000000000000E+20
 35
-1.000000000000000E+20
146
0.0
 13
0.0
 23
0.0
 33
0.0
 16
1.0
 26
0.0
 36
0.0
 17
0.0
 27
1.0
 37
0.0
 76
     0
330
1B
  0
LAYOUT
  5
26
102
{ACAD_REACTORS
330
1A
102
}
330
1A
100
AcDbPlotSettings
  1

  2
none_device
  4

  6

 40
0.0
 41
0.0
 42
0.0
 43
0.0
 44
0.0
 45
0.0
 46
0.0
 47
0.0
 48
0.0
 49
0.0
140
0.0
141
0.0
142
1.0
143
1.0
 70
   688
 72
     0
 73
     0
 74
     5
  7

 75
    16
 76
     0
 77
     2
 78
   300
147
1.0
148
0.0
149
0.0
100
AcDbLayout
  1
Layout2
 70
     1
 71
     2
 10
0.0
 20
0.0
 11
0.0
 21
0.0
 12
0.0
 22
0.0
 32
0.0
 14
0.0
 24
0.0
 34
0.0
 15
0.0
 25
0.0
 35
0.0
146
0.0
 13
0.0
 23
0.0
 33
0.0
 16
1.0
 26
0.0
 36
0.0
 17
0.0
 27
1.0
 37
0.0
 76
     0
330
23
  0
LAYOUT
  5
22
102
{ACAD_REACTORS
330
1A
102
}
330
1A
100
AcDbPlotSettings
  1

  2
none_device
  4

  6

 40
0.0
 41
0.0
 42
0.0
 43
0.0
 44
0.0
 45
0.0
 46
0.0
 47
0.0
 48
0.0
 49
0.0
140
0.0
141
0.0
142
1.0
143
1.0
 70
  1712
 72
     0
 73
     0
 74
     0
  7

 75
     0
 76
     0
 77
     2
 78
   300
147
1.0
148
0.0
149
0.0
100
AcDbLayout
  1
Model
 70
     1
 71
     0
 10
0.0
 20
0.0
 11
12.0
 21
9.0
 12
0.0
 22
0.0
 32
0.0
 14
1.000000000000000E+20
 24
1.000000000000000E+20
 34
1.000000000000000E+20
 15
-1.000000000000000E+20
 25
-1.000000000000000E+20
 35
-1.000000000000000E+20
146
0.0
 13
0.0
 23
0.0
 33
0.0
 16
1.0
 26
0.0
 36
0.0
 17
0.0
 27
1.0
 37
0.0
 76
     0
330
1F
331
29
  0
MLINESTYLE
  5
18
102
{ACAD_REACTORS
330
17
102
}
330
17
100
AcDbMlineStyle
  2
Standard
 70
     0
  3

 62
   256
 51
90.0
 52
90.0
 71
     2
 49
0.5
 62
   256
  6
BYLAYER
 49
-0.5
 62
   256
  6
BYLAYER
  0
ACDBPLACEHOLDER
  5
F
102
{ACAD_REACTORS
330
E
102
}
330
E
  0
VISUALSTYLE
  5
2F
102
{ACAD_REACTORS
330
2A
102
}
330
2A
100
AcDbVisualStyle
  2
2dWireframe
 70
     4
 71
     0
 72
     2
 73
     0
 90
        0
 40
-0.6
 41
-30.0
 62
     5
 63
     7
421
 16777215
 74
     1
 91
        4
 64
     7
 65
   257
 75
     1
175
     1
 42
1.0
 92
        0
 66
   257
 43
1.0
 76
     1
 77
     6
 78
     2
 67
     7
 79
     5
170
     0
171
     0
290
     0
174
     0
 93
        1
 44
0.0
173
     0
291
     0
 45
0.0
1001
ACAD
1000
AcDbSavedByObjectVersion
1070
     0
  0
VISUALSTYLE
  5
31
102
{ACAD_REACTORS
330
2A
102
}
330
2A
100
AcDbVisualStyle
  2
3D Hidden
 70
     6
 71
     1
 72
     2
 73
     2
 90
        0
 40
-0.6
 41
-30.0
 62
     5
 63
     7
421
 16777215
 74
     2
 91
        2
 64
     7
 65
   257
 75
     2
175
     1
 42
40.0
 92
        0
 66
   257
 43
1.0
 76
     1
 77
     6
 78
     2
 67
     7
 79
     3
170
     0
171
     0
290
     0
174
     0
 93
        1
 44
0.0
173
     0
291
     0
 45
0.0
1001
ACAD
1000
AcDbSavedByObjectVersion
1070
     0
  0
VISUALSTYLE
  5
30
102
{ACAD_REACTORS
330
2A
102
}
330
2A
100
AcDbVisualStyle
  2
3dWireframe
 70
     5
 71
     0
 72
     2
 73
     0
 90
        0
 40
-0.6
 41
-30.0
 62
     5
 63
     7
421
 16777215
 74
     1
 91
        4
 64
     7
 65
   257
 75
     1
175
     1
 42
1.0
 92
        0
 66
   257
 43
1.0
 76
     1
 77
     6
 78
     2
 67
     7
 79
     5
170
     0
171
     0
290
     0
174
     0
 93
        1
 44
0.0
173
     0
291
     0
 45
0.0
1001
ACAD
1000
AcDbSavedByObjectVersion
1070
     0
  0
VISUALSTYLE
  5
32
102
{ACAD_REACTORS
330
2A
102
}
330
2A
100
AcDbVisualStyle
  2
Basic
 70
     7
 71
     1
 72
     0
 73
     1
 90
        0
 40
-0.6
 41
-30.0
 62
     5
 63
     7
421
 16777215
 74
     0
 91
        4
 64
     7
 65
   257
 75
     1
175
     1
 42
1.0
 92
        8
 66
     7
 43
1.0
 76
     1
 77
     6
 78
     2
 67
     7
 79
     5
170
     0
171
     0
290
     0
174
     0
 93
        1
 44
0.0
173
     0
291
     1
 45
0.0
1001
ACAD
1000
AcDbSavedByObjectVersion
1070
     0
  0
VISUALSTYLE
  5
36
102
{ACAD_REACTORS
330
2A
102
}
330
2A
100
AcDbVisualStyle
  2
Brighten
 70
    12
 71
     2
 72
     2
 73
     0
 90
        0
 40
-0.6
 41
-30.0
 62
     5
 63
     7
421
 16777215
 74
     1
 91
        4
 64
     7
 65
   257
 75
     1
175
     1
 42
1.0
 92
        8
 66
     7
 43
1.0
 76
     1
 77
     6
 78
     2
 67
     7
 79
     5
170
     0
171
     0
290
     0
174
     0
 93
        1
 44
50.0
173
     0
291
     1
 45
0.0
1001
ACAD
1000
AcDbSavedByObjectVersion
1070
     0
  0
VISUALSTYLE
  5
3A
102
{ACAD_REACTORS
330
2A
102
}
330
2A
100
AcDbVisualStyle
  2
ColorChange
 70
    16
 71
     2
 72
     2
 73
     3
 90
        0
 40
-0.6
 41
-30.0
 62
     5
 63
     8
421
  8421504
 74
     1
 91
        4
 64
     7
 65
   257
 75
     1
175
     1
 42
1.0
 92
        8
 66
     8
424
  8421504
 43
1.0
 76
     1
 77
     6
 78
     2
 67
     7
 79
     5
170
     0
171
     0
290
     0
174
     0
 93
        1
 44
0.0
173
     0
291
     1
 45
0.0
1001
ACAD
1000
AcDbSavedByObjectVersion
1070
     0
  0
VISUALSTYLE
  5
34
102
{ACAD_REACTORS
330
2A
102
}
330
2A
100
AcDbVisualStyle
  2
Conceptual
 70
     9
 71
     3
 72
     2
 73
     0
 90
        0
 40
-0.6
 41
-30.0
 62
     5
 63
     7
421
 16777215
 74
     2
 91
        2
 64
     7
 65
   257
 75
     1
175
     1
 42
40.0
 92
        8
 66
     7
 43
1.0
 76
     1
 77
     6
 78
     2
 67
     7
 79
     3
170
     0
171
     0
290
     0
174
     0
 93
        1
 44
0.0
173
     0
291
     0
 45
0.0
1001
ACAD
1000
AcDbSavedByObjectVersion
1070
     0
  0
VISUALSTYLE
  5
35
102
{ACAD_REACTORS
330
2A
102
}
330
2A
100
AcDbVisualStyle
  2
Dim
 70
    11
 71
     2
 72
     2
 73
     0
 90
        0
 40
-0.6
 41
-30.0
 62
     5
 63
     7
421
 16777215
 74
     1
 91
        4
 64
     7
 65
   257
 75
     1
175
     1
 42
1.0
 92
        8
 66
     7
 43
1.0
 76
     1
 77
     6
 78
     2
 67
     7
 79
     5
170
     0
171
     0
290
     0
174
     0
 93
        1
 44
-50.0
173
     0
291
     1
 45
0.0
1001
ACAD
1000
AcDbSavedByObjectVersion
1070
     0
  0
VISUALSTYLE
  5
39
102
{ACAD_REACTORS
330
2A
102
}
330
2A
100
AcDbVisualStyle
  2
Facepattern
 70
    15
 71
     2
 72
     2
 73
     0
 90
        0
 40
-0.6
 41
-30.0
 62
     5
 63
     7
421
 16777215
 74
     1
 91
        4
 64
     7
 65
   257
 75
     1
175
     1
 42
1.0
 92
        8
 66
     7
 43
1.0
 76
     1
 77
     6
 78
     2
 67
     7
 79
     5
170
     0
171
     0
290
     0
174
     0
 93
        1
 44
0.0
173
     0
291
     1
 45
0.0
1001
ACAD
1000
AcDbSavedByObjectVersion
1070
     0
  0
VISUALSTYLE
  5
2B
102
{ACAD_REACTORS
330
2A
102
}
330
2A
100
AcDbVisualStyle
  2
Flat
 70
     0
 71
     2
 72
     1
 73
     1
 90
        2
 40
-0.6
 41
30.0
 62
     5
 63
     7
421
 16777215
 74
     0
 91
        4
 64
     7
 65
   257
 75
     1
175
     1
 42
1.0
 92
        8
 66
     7
 43
1.0
 76
     1
 77
     6
 78
     2
 67
     7
 79
     5
170
     0
171
     0
290
     0
174
     0
 93
       13
 44
0.0
173
     0
291
     1
 45
0.0
1001
ACAD
1000
AcDbSavedByObjectVersion
1070
     0
  0
VISUALSTYLE
  5
2C
102
{ACAD_REACTORS
330
2A
102
}
330
2A
100
AcDbVisualStyle
  2
FlatWithEdges
 70
     1
 71
     2
 72
     1
 73
     1
 90
        2
 40
-0.6
 41
30.0
 62
     5
 63
     7
421
 16777215
 74
     1
 91
        4
 64
     7
 65
   257
 75
     1
175
     1
 42
1.0
 92
        0
 66
   257
 43
1.0
 76
     1
 77
     6
 78
     2
 67
     7
 79
     5
170
     0
171
     0
290
     0
174
     0
 93
       13
 44
0.0
173
     0
291
     1
 45
0.0
1001
ACAD
1000
AcDbSavedByObjectVersion
1070
     0
  0
VISUALSTYLE
  5
2D
102
{ACAD_REACTORS
330
2A
102
}
330
2A
100
AcDbVisualStyle
  2
Gouraud
 70
     2
 71
     2
 72
     2
 73
     1
 90
        2
 40
-0.6
 41
30.0
 62
     5
 63
     7
421
 16777215
 74
     0
 91
        4
 64
     7
 65
   257
 75
     1
175
     1
 42
1.0
 92
        0
 66
     7
 43
1.0
 76
     1
 77
     6
 78
     2
 67
     7
 79
     5
170
     0
171
     0
290
     0
174
     0
 93
       13
 44
0.0
173
     0
291
     1
 45
0.0
1001
ACAD
1000
AcDbSavedByObjectVersion
1070
     0
  0
VISUALSTYLE
  5
2E
102
{ACAD_REACTORS
330
2A
102
}
330
2A
100
AcDbVisualStyle
  2
GouraudWithEdges
 70
     3
 71
     2
 72
     2
 73
     1
 90
        2
 40
-0.6
 41
30.0
 62
     5
 63
     7
421
 16777215
 74
     1
 91
        4
 64
     7
 65
   257
 75
     1
175
     1
 42
1.0
 92
        0
 66
   257
 43
1.0
 76
     1
 77
     6
 78
     2
 67
     7
 79
     5
170
     0
171
     0
290
     0
174
     0
 93
       13
 44
0.0
173
     0
291
     1
 45
0.0
1001
ACAD
1000
AcDbSavedByObjectVersion
1070
     0
  0
VISUALSTYLE
  5
38
102
{ACAD_REACTORS
330
2A
102
}
330
2A
100
AcDbVisualStyle
  2
Linepattern
 70
    14
 71
     2
 72
     2
 73
     0
 90
        0
 40
-0.6
 41
-30.0
 62
     5
 63
     7
421
 16777215
 74
     1
 91
        4
 64
     7
 65
   257
 75
     7
175
     7
 42
1.0
 92
        8
 66
     7
 43
1.0
 76
     1
 77
     6
 78
     2
 67
     7
 79
     5
170
     0
171
     0
290
     0
174
     0
 93
        1
 44
0.0
173
     0
291
     1
 45
0.0
1001
ACAD
1000
AcDbSavedByObjectVersion
1070
     0
  0
VISUALSTYLE
  5
33
102
{ACAD_REACTORS
330
2A
102
}
330
2A
100
AcDbVisualStyle
  2
Realistic
 70
     8
 71
     2
 72
     2
 73
     0
 90
        0
 40
-0.6
 41
-30.0
 62
     5
 63
     7
421
 16777215
 74
     1
 91
        0
 64
     7
 65
   257
 75
     1
175
     1
 42
1.0
 92
        8
 66
     8
424
  7895160
 43
1.0
 76
     1
 77
     6
 78
     2
 67
     7
 79
     5
170
     0
171
     0
290
     0
174
     0
 93
       13
 44
0.0
173
     0
291
     0
 45
0.0
1001
ACAD
1000
AcDbSavedByObjectVersion
1070
     0
  0
VISUALSTYLE
  5
37
102
{ACAD_REACTORS
330
2A
102
}
330
2A
100
AcDbVisualStyle
  2
Thicken
 70
    13
 71
     2
 72
     2
 73
     0
 90
        0
 40
-0.6
 41
-30.0
 62
     5
 63
     7
421
 16777215
 74
     1
 91
        4
 64
     7
 65
   257
 75
     1
175
     1
 42
1.0
 92
       12
 66
     7
 43
1.0
 76
     1
 77
     6
 78
     2
 67
     7
 79
     5
170
     0
171
     0
290
     0
174
     0
 93
        1
 44
0.0
173
     0
291
     1
 45
0.0
1001
ACAD
1000
AcDbSavedByObjectVersion
1070
     0
  0
ENDSEC
  0
EOF
